<?xml version="1.0" encoding="UTF-8" standalone="no"?>
<!-- Created with Inkscape (http://www.inkscape.org/) -->

<svg
   xmlns:dc="http://purl.org/dc/elements/1.1/"
   xmlns:cc="http://creativecommons.org/ns#"
   xmlns:rdf="http://www.w3.org/1999/02/22-rdf-syntax-ns#"
   xmlns:svg="http://www.w3.org/2000/svg"
   xmlns="http://www.w3.org/2000/svg"
   xmlns:sodipodi="http://sodipodi.sourceforge.net/DTD/sodipodi-0.dtd"
   xmlns:inkscape="http://www.inkscape.org/namespaces/inkscape"
   version="1.1"
   id="svg96"
   width="64"
   height="63.941048"
   viewBox="0 0 64 63.941048"
   sodipodi:docname="adv-icon-2.svg"
   inkscape:version="0.92.4 (unknown)">
  <path
     style="stroke-width:0.31999999"
     d="m 0,46.341048 v -17.6 h 32 32 v 17.6 17.6 H 32 0 Z m 61.769469,14.96 c 0.0096,-0.406973 0.0056,-29.641031 -0.0041,-30.08 -0.003,-0.132 -13.397369,-0.24 -29.765369,-0.24 -16.368,0 -29.7624,0.108 -29.765332,0.24 -0.0098,0.438969 -0.01377,29.673027 -0.0041,30.08 0.0075,0.317066 6.179854,0.4 29.769471,0.4 23.589616,0 29.761965,-0.08293 29.76947,-0.4 z M 4.373333,59.567714 C 4.256,59.450382 4.16,57.861861 4.16,56.037672 c 0,-2.775466 0.08543,-3.349491 0.523495,-3.517594 1.092758,-0.419331 1.551956,0.337748 1.650246,2.720752 l 0.09374,2.272733 2.272733,0.09374 c 1.701653,0.07019 2.356902,0.227715 2.607702,0.626919 0.242484,0.385964 0.218834,0.67311 -0.08566,1.04 -0.330938,0.398762 -1.083189,0.506826 -3.528107,0.506826 -1.709117,0 -3.203485,-0.096 -3.320818,-0.213334 z m 24.705912,-0.06564 c -0.638415,-0.136134 -1.95186,-0.63457 -2.918767,-1.107632 -4.949664,-2.421645 -7.903577,-7.483875 -7.500211,-12.853392 0.222292,-2.959101 0.615087,-4.162262 2.117976,-6.487523 1.493399,-2.310579 3.81635,-4.231674 6.34109,-5.244122 2.618173,-1.049917 7.14316,-1.049917 9.761336,0 2.524739,1.012448 4.847689,2.933543 6.341088,5.244122 1.502889,2.325261 1.895683,3.528422 2.117977,6.487523 0.410372,5.4628 -2.543593,10.425824 -7.723043,12.975661 -1.590153,0.782829 -2.475584,0.991309 -4.669462,1.099443 -1.488977,0.07339 -3.229569,0.02205 -3.867984,-0.11408 z m 6.93151,-2.660448 c 2.398599,-0.917891 4.984077,-3.295139 6.133725,-5.639728 0.786682,-1.604355 0.892838,-2.182291 0.892838,-4.860848 0,-2.67079 -0.107264,-3.258666 -0.883184,-4.840445 -1.041308,-2.12279 -3.48758,-4.524249 -5.60462,-5.501949 -2.163914,-0.999344 -6.935115,-0.999344 -9.099027,0 -2.117039,0.9777 -4.563311,3.379159 -5.60462,5.501949 -0.779829,1.589747 -0.881827,2.156205 -0.871585,4.840445 0.0092,2.409878 0.153515,3.349734 0.696268,4.534294 0.736592,1.60762 2.505238,3.731578 3.984367,4.78481 2.680329,1.908563 7.129429,2.41615 10.355838,1.181472 z M 31.04,54.826442 c 0,-0.631606 -0.326713,-0.96017 -1.592642,-1.601664 -0.948858,-0.480822 -1.789643,-1.188013 -2.08,-1.749498 -0.458762,-0.887148 -0.650143,-1.93423 -0.35353,-1.93423 0.07361,0 0.357197,-0.08572 0.630202,-0.190477 0.312902,-0.12007 0.84583,0.192128 1.441801,0.844631 1.74085,1.90599 5.52319,1.574883 5.728265,-0.50145 0.163715,-1.657565 -0.501501,-2.145056 -3.231832,-2.368381 -2.117554,-0.173203 -2.564065,-0.322115 -3.417499,-1.139757 -2.237626,-2.143782 -1.617531,-5.486713 1.25265,-6.753033 0.851336,-0.37561 1.384713,-0.866723 1.594315,-1.467987 C 31.22274,37.359293 31.548948,37.06105 32,37.06105 c 0.451053,0 0.777261,0.298243 0.988269,0.903546 0.210553,0.603993 0.743993,1.092825 1.609024,1.474476 1.298825,0.57304 2.519273,2.093802 2.52151,3.141978 0.0019,0.935488 -1.53584,0.695088 -2.558803,-0.4 -0.759283,-0.812816 -1.136013,-0.96 -2.457184,-0.96 -1.911692,0 -2.984674,0.669514 -2.977916,1.858144 0.0094,1.652067 1.051521,2.301856 3.691711,2.301856 1.685946,0 1.909357,0.09068 3.061037,1.242352 2.212726,2.212726 1.632682,5.102605 -1.325005,6.601376 C 33.286714,53.866272 32.96,54.194836 32.96,54.826442 c 0,0.669565 -0.151069,0.794608 -0.96,0.794608 -0.80893,0 -0.96,-0.125043 -0.96,-0.794608 z m 21.746589,4.458448 c -0.839917,-1.012038 0.0068,-1.57423 2.526937,-1.677859 L 57.6,57.513011 v -2.186797 c 0,-2.310797 0.396269,-3.060656 1.504627,-2.847207 0.512192,0.09864 0.575373,0.496852 0.575373,3.626426 v 3.515616 l -3.231968,0.09067 c -2.662253,0.07468 -3.30767,-6.4e-4 -3.661443,-0.426826 z M 4.297678,39.83827 c -0.08923,-0.232528 -0.120709,-1.852528 -0.06996,-3.6 l 0.09228,-3.177222 h 3.325124 c 2.863661,0 3.374375,0.08032 3.68,0.578742 0.551062,0.898688 -0.567417,1.555005 -2.525124,1.481732 -2.51263,-0.09404 -2.4,-0.197076 -2.4,2.195526 0,1.265779 -0.160628,2.336627 -0.384,2.56 -0.511572,0.511571 -1.51583,0.488909 -1.718322,-0.03878 z m 53.698584,0.05104 C 57.758944,39.651992 57.6,38.620235 57.6,37.317048 c 0,-2.392602 0.11263,-2.289568 -2.4,-2.195526 -1.957706,0.07327 -3.076186,-0.583044 -2.525123,-1.481732 0.305625,-0.498425 0.816339,-0.578742 3.68,-0.578742 H 59.68 v 3.52 c 0,3.282902 -0.04336,3.526214 -0.643738,3.612262 -0.354054,0.05075 -0.822054,-0.08605 -1.04,-0.304 z M 45.622224,25.997556 C 44.903942,25.279275 44.982819,24.970458 46.24,23.57891 c 0.836461,-0.925861 1.12,-1.527035 1.12,-2.374675 0,-1.231613 -0.713584,-2.887715 -1.333267,-3.094276 -0.212704,-0.0709 -1.209517,0.693873 -2.215143,1.699499 -1.690844,1.690845 -2.989161,2.500685 -3.380944,2.108902 -0.08862,-0.08862 -0.207472,-1.217766 -0.264115,-2.509218 C 39.976957,15.087 38.177814,12.227967 33.815894,9.3172872 32.614637,8.5156958 31.1079,7.1581182 30.467589,6.3004481 29.827279,5.4427777 29.13769,4.7410475 28.935169,4.7410475 c -0.712525,0 -2.055169,4.8011661 -2.055169,7.3490835 0,0.705533 -0.171964,1.294975 -0.4,1.371082 -0.22,0.07342 -1.160106,-0.202576 -2.089124,-0.613333 -0.929019,-0.410758 -1.881455,-0.746833 -2.116526,-0.746833 -0.23507,0 -0.676166,0.651382 -0.980212,1.447516 -0.362492,0.949172 -1.100902,1.913144 -2.14482,2.800001 -1.8793,1.596552 -2.509318,2.660499 -2.509318,4.23763 0,1.327266 0.386689,2.199079 1.510196,3.404821 0.55741,0.598211 0.729007,1.048429 0.579336,1.52 -0.411263,1.295774 -2.001788,0.663224 -3.231835,-1.285297 -1.837869,-2.911373 -1.267882,-6.249229 1.490673,-8.729407 1.972618,-1.773554 2.52715,-2.818166 2.529658,-4.765307 0.0025,-1.9555968 0.400312,-2.1056234 2.742447,-1.0343079 2.209928,1.0108419 2.417628,0.8784379 3.005057,-1.9156486 0.403152,-1.9175821 2.103376,-5.700157 3.17387,-7.0610688 L 29.005737,0 30.071275,1.8105237 c 1.718384,2.9198176 3.118373,4.4500508 5.608725,6.1305238 1.286947,0.868423 2.845309,2.1957295 3.463024,2.9495695 1.378163,1.681867 2.77528,4.402347 2.781875,5.416904 0.0026,0.41444 0.135722,0.960267 0.295613,1.21295 0.440342,0.695895 1.124045,-0.02377 1.97649,-2.080446 0.396422,-0.956438 0.881923,-1.738978 1.078889,-1.738978 0.420381,0 2.95888,3.444775 3.755719,5.096558 0.974028,2.019093 0.515193,4.612154 -1.126884,6.368459 -1.109913,1.187124 -1.708729,1.405266 -2.282502,0.831492 z M 23.447377,24.995121 C 23.036777,24.368466 22.88,23.491864 22.88,21.822687 c 0,-2.050488 0.106559,-2.45584 0.96,-3.651853 0.584911,-0.819695 1.680173,-1.736929 2.803208,-2.347565 2.090096,-1.136464 2.462996,-0.971033 2.471892,1.096617 0.0059,1.377745 0.746565,2.553689 1.278532,2.029987 0.196195,-0.193146 0.443585,-1.885146 0.549757,-3.76 0.106172,-1.874853 0.318873,-3.408825 0.472669,-3.408825 0.643334,0 4.424272,2.660024 5.16927,3.636764 0.444102,0.582248 1.057968,1.824524 1.364147,2.760613 0.634,1.938343 0.391591,3.465818 -0.965312,6.082623 -0.781241,1.50664 -1.502912,1.911781 -2.270569,1.274684 -0.392916,-0.326091 -0.385066,-0.539033 0.057,-1.546424 1.307463,-2.979471 1.439808,-3.624245 1.064781,-5.187536 C 35.456563,17.222697 33.924192,15.382915 33.306003,15.764977 33.115702,15.88259 32.96,16.480726 32.96,17.094168 c 0,1.503519 -0.937632,5.149952 -1.42913,5.557859 -0.569617,0.47274 -2.840551,-1.256297 -3.756464,-2.860086 -0.403923,-0.70728 -0.904601,-1.287073 -1.112616,-1.288428 -0.208015,-0.0013 -0.689559,0.434785 -1.070097,0.969202 -0.706093,0.991615 -0.749263,2.52027 -0.138447,4.902371 0.163569,0.637897 0.100296,0.998949 -0.209434,1.1951 -0.748466,0.473997 -1.204772,0.327927 -1.796435,-0.575065 z"
     id="path230"
     inkscape:connector-curvature="0" />
</svg>
