<?xml version="1.0" encoding="UTF-8" standalone="no"?>
<!-- Created with Inkscape (http://www.inkscape.org/) -->

<svg
   xmlns:dc="http://purl.org/dc/elements/1.1/"
   xmlns:cc="http://creativecommons.org/ns#"
   xmlns:rdf="http://www.w3.org/1999/02/22-rdf-syntax-ns#"
   xmlns:svg="http://www.w3.org/2000/svg"
   xmlns="http://www.w3.org/2000/svg"
   xmlns:sodipodi="http://sodipodi.sourceforge.net/DTD/sodipodi-0.dtd"
   xmlns:inkscape="http://www.inkscape.org/namespaces/inkscape"
   version="1.1"
   id="svg116"
   width="63.993771"
   height="63.997818"
   viewBox="0 0 63.993771 63.997818"
   sodipodi:docname="adv-icon-4.svg"
   inkscape:version="0.92.4 (unknown)">
  <path
     style="stroke-width:0.31999999"
     d="M 13.012643,63.792205 C 12.898355,63.677917 11.998323,63.312125 11.012571,62.979338 6.5873953,61.485408 2.6369353,57.606976 1.1331073,53.28 0.8272653,52.4 0.4457983,51.429955 0.2854023,51.124342 -0.0878667,50.413133 -0.0983607,43.84 0.2737723,43.84 c 0.154,0 0.366979,-0.434896 0.473286,-0.966432 0.622957,-3.114784 4.042342,-7.546422 7.367296,-9.548262 C 9.9006483,32.24984 13.745963,31.04 15.377894,31.04 c 0.495763,0 0.950626,-0.216871 1.061642,-0.506172 0.10683,-0.278395 0.194236,-6.315346 0.194236,-13.415448 V 4.209104 l 0.828446,-0.9845523 c 0.816914,-0.9708474 0.870325,-0.984552 3.837058,-0.984552 h 3.008612 L 25.03083,1.1239609 25.753772,0.007922 40.083548,0.003961 54.413324,0 55.396697,1.12 56.38007,2.24 h 2.8223 c 2.569428,0 2.910512,0.074226 3.806848,0.828446 l 0.984554,0.8284458 V 22.633802 41.37071 L 63.036684,42.285357 62.079596,43.2 H 47.862858 c -7.819207,0 -14.432336,0.08273 -14.695843,0.18385 -0.393786,0.15111 -0.45106,0.706707 -0.321632,3.12 0.281059,5.240598 -1.387266,9.415212 -5.182624,12.968364 -1.92478,1.801949 -4.707886,3.407565 -6.542552,3.7745 -0.531539,0.106307 -0.966434,0.319286 -0.966434,0.473286 0,0.320006 -6.824327,0.389005 -7.14113,0.07221 z m 5.834918,-2.069072 C 24.415286,60.77976 29.078112,56.437616 30.57944,50.798102 32.533495,43.457984 27.615456,35.440704 19.947583,33.466282 c -5.022441,-1.293245 -9.705664,0.07211 -13.5596277,3.953216 -2.451323,2.468582 -3.629366,4.723952 -4.113383,7.875091 -1.311054,8.535488 4.934112,15.999568 14.0129887,16.748003 0.249583,0.02058 1.401583,-0.123184 2.56,-0.319459 z M 13.273773,59.391312 C 8.1882813,57.778762 4.6353273,53.490749 4.2331363,48.480285 c -0.40561,-5.053037 2.554807,-10.092544 7.1947917,-12.247671 1.608344,-0.747024 2.257583,-0.858316 5.045845,-0.864976 2.811483,-0.0067 3.422157,0.09649 5.029781,0.849981 2.563644,1.201578 4.855805,3.454432 6.098443,5.993863 0.955574,1.952793 1.031212,2.344854 1.024137,5.308518 -0.0067,2.788262 -0.117952,3.437501 -0.864976,5.045846 -1.029139,2.215735 -3.752903,5.041789 -5.714364,5.928964 -3.077405,1.39192 -6.203255,1.711347 -8.773021,0.896502 z m 7.012802,-2.366298 c 2.110868,-0.731468 4.430321,-2.878608 5.531082,-5.120179 1.20116,-2.446022 1.268203,-6.10847 0.156417,-8.544835 -0.95558,-2.094054 -3.273295,-4.421958 -5.310896,-5.334246 -2.250072,-1.007415 -6.107985,-1.030567 -8.245619,-0.04948 -5.1877267,2.38095 -7.6180577,8.563862 -5.3303777,13.560816 2.411506,5.267421 7.6047367,7.426617 13.1993937,5.487929 z M 15.648624,47.92 c -0.02354,-0.374445 -0.01404,-4.843312 0.01294,-6.08 0.0082,-0.376515 0.267267,-0.56 0.790649,-0.56 0.91637,0 1.212853,0.691027 1.135635,2.646877 -0.09839,2.492166 -0.10821,2.473123 1.274669,2.473123 0.885271,0 1.355793,0.169258 1.556759,0.56 0.563853,1.09631 0.103915,1.36 -2.372167,1.36 -1.67192,0 -2.380766,-0.118214 -2.398482,-0.4 z M 61.742515,40.661037 C 62.1684,39.865264 62.201514,12.916718 61.776928,12.654311 61.38873,12.41439 19.239125,12.4142 18.850931,12.654117 18.367011,12.953196 18.466094,30.575184 18.953773,30.944791 19.376055,31.264834 21.738804,32 22.345108,32 c 0.250344,0 0.382726,-2.27176 0.442873,-7.6 l 0.08579,-7.6 17.36,-0.08276 c 11.508707,-0.05486 17.363318,0.02603 17.369846,0.24 0.11066,3.627412 -0.0255,19.609194 -0.16904,19.84145 -0.127932,0.207002 -5.086905,0.321306 -13.939692,0.321306 -8.76601,0 -13.741114,0.11361 -13.741114,0.313786 0,0.172582 0.508425,1.108582 1.129833,2.08 l 1.129834,1.766214 h 14.698906 c 14.204877,0 14.710045,-0.0208 15.030169,-0.618963 z M 30.873773,33.12 V 31.2 h -3.04 -3.04 v 0.943718 c 0,0.738928 0.304841,1.176231 1.404766,2.015172 1.23476,0.941782 1.602665,1.059932 3.04,0.976281 l 1.635234,-0.09517 z m 8.33617,1.329498 c 0.103603,-0.412778 0.142345,-1.312778 0.0861,-2 L 39.193773,31.2 h -3.04 -3.04 l -0.09914,1.559341 C 32.860243,35.187683 32.876007,35.2 36.137632,35.2 c 2.758615,0 2.892135,-0.03262 3.072311,-0.750502 z m 8.07983,0.366502 c 0.434086,-0.434086 0.510986,-2.76039 0.112038,-3.389231 -0.1899,-0.299325 -1.04856,-0.387532 -3.1151,-0.32 l -2.852938,0.09323 -0.09914,1.559341 c -0.05453,0.857638 -0.02304,1.757638 0.06996,2 0.221408,0.576976 5.315821,0.626022 5.885184,0.05666 z m 8.31927,-1.776 0.09527,-2 h -3.05527 c -2.207964,0 -3.067187,0.110931 -3.098246,0.4 -0.07983,0.743098 0.108774,3.278122 0.262794,3.532074 0.08408,0.13864 1.40102,0.21064 2.926531,0.16 l 2.773651,-0.09207 z M 30.873773,26.72 V 24.8 l -2.671014,-0.09344 c -1.693986,-0.05926 -2.835249,0.04286 -3.12,0.279183 -0.465146,0.386037 -0.639837,3.196743 -0.224498,3.612081 0.123469,0.123469 1.527469,0.183469 3.12,0.133334 l 2.895512,-0.09116 z m 8.414934,0.291577 c 0.128644,-2.20666 -0.196752,-2.420717 -3.50392,-2.30502 l -2.671014,0.09344 -0.09914,1.559341 c -0.157338,2.474694 -0.153802,2.477305 3.213731,2.372739 l 2.965409,-0.09208 z m 8.190829,1.282251 c 0.355063,-0.92528 0.200675,-2.93012 -0.254749,-3.308088 -0.284752,-0.236323 -1.426016,-0.338445 -3.12,-0.279183 l -2.671014,0.09344 -0.09527,2 -0.09527,2 h 3.021031 c 2.45959,0 3.057133,-0.09407 3.21527,-0.506172 z M 55.609043,26.8 l -0.09527,-2 h -2.88 -2.88 l -0.190934,1.6 c -0.105012,0.88 -0.125607,1.78 -0.04576,2 0.102167,0.281502 1.040135,0.4 3.166205,0.4 h 3.021031 z m -24.73527,-6.16 v -1.92 h -3.04 -3.04 l -0.09914,1.559341 c -0.157336,2.474694 -0.1538,2.477305 3.213732,2.372739 L 30.873773,22.56 Z m 8.32,0 v -1.92 h -3.04 -3.04 l -0.09914,1.559341 c -0.157338,2.474694 -0.153802,2.477305 3.213731,2.372739 L 39.193773,22.56 Z m 8.285763,1.573828 c 0.279152,-0.727456 0.230282,-2.781564 -0.07773,-3.267059 -0.1899,-0.299325 -1.04856,-0.387532 -3.1151,-0.32 l -2.852933,0.09323 -0.09914,1.559341 c -0.15424,2.42596 -0.1356,2.440659 3.094861,2.440659 2.308924,0 2.893001,-0.09693 3.050041,-0.506172 z M 55.609043,20.72 l -0.09527,-2 -2.690246,-0.09375 c -1.551482,-0.05407 -2.829831,0.04583 -3.020004,0.236002 -0.322316,0.322319 -0.332323,3.08054 -0.01306,3.59714 0.0886,0.143336 1.45545,0.260611 3.03746,0.260611 h 2.876384 z M 61.807242,9.8444413 C 62.179616,9.2578208 62.131677,5.5061171 61.742515,4.7789626 61.456141,4.2438711 61.053869,4.1599997 58.773773,4.1599997 c -2.530006,0 -2.671808,0.03912 -3.479869,0.96 l -0.842384,0.96 H 40.311034 26.170547 l -0.896774,-0.96 c -0.850023,-0.909953 -1.028545,-0.96 -3.424387,-0.96 -1.539255,0 -2.677766,0.1501533 -2.911613,0.384 -0.575854,0.5758544 -0.51443,5.2712048 0.07326,5.6000993 0.251494,0.140745 9.92576,0.2219 21.498369,0.180343 16.541277,-0.0594 21.096013,-0.162052 21.29784,-0.4800007 z M 53.654743,3.6365043 C 53.765229,3.3485821 53.709063,2.880582 53.529917,2.5965044 53.24089,2.1381679 51.802643,2.0699702 40.758992,1.9909423 33.914122,1.9419603 27.989773,1.9807043 27.593773,2.0770393 26.893699,2.2473459 26.572612,3.4321728 27.087106,3.9466666 27.20444,4.064 33.18496,4.16 40.377149,4.16 52.188583,4.16 53.473296,4.109348 53.654743,3.6365043 Z"
     id="path188"
     inkscape:connector-curvature="0" />
</svg>
