<?xml version="1.0" encoding="UTF-8" standalone="no"?>
<!-- Created with Inkscape (http://www.inkscape.org/) -->

<svg
   xmlns:dc="http://purl.org/dc/elements/1.1/"
   xmlns:cc="http://creativecommons.org/ns#"
   xmlns:rdf="http://www.w3.org/1999/02/22-rdf-syntax-ns#"
   xmlns:svg="http://www.w3.org/2000/svg"
   xmlns="http://www.w3.org/2000/svg"
   xmlns:sodipodi="http://sodipodi.sourceforge.net/DTD/sodipodi-0.dtd"
   xmlns:inkscape="http://www.inkscape.org/namespaces/inkscape"
   version="1.1"
   id="svg136"
   width="43.520004"
   height="63.995346"
   viewBox="0 0 43.520004 63.995346"
   sodipodi:docname="adv-icon-1.svg"
   inkscape:version="0.92.4 (unknown)">
  <path
     style="stroke-width:0.31999999"
     d="m 0,55.702012 c 0,-4.561332 0.108,-8.341332 0.24,-8.4 0.132,-0.05867 0.626306,-0.700932 1.098458,-1.427255 1.197537,-1.842198 2.369502,-2.467581 8.318576,-4.438944 2.974692,-0.985734 5.381406,-1.965405 5.615794,-2.285949 0.57948,-0.792486 0.263991,-1.490326 -1.486041,-3.287017 -0.841128,-0.863552 -1.844574,-2.240765 -2.22988,-3.060471 C 11.1132,31.858433 10.482492,31.114633 9.836661,30.773676 6.99195,29.27185 6.016476,27.290793 6.111148,23.207654 6.163498,20.950052 6.111265,20.755445 5.163272,19.675741 3.83777,18.166077 3.856482,17.059185 5.235412,15.408719 5.906136,14.605915 6.392869,13.608433 6.528857,12.75801 7.203122,8.5413892 11.695843,3.7143367 16.033178,2.5464136 c 1.124378,-0.3027634 2.846826,-1.69907669 2.846826,-2.30779714 0,-0.31597089 5.75663,-0.31923279 5.770646,-0.00327 0.0314,0.70776899 1.497592,1.84126624 3.03983,2.35005424 4.518046,1.4905137 8.634039,6.003718 9.305639,10.2036773 0.130778,0.81784 0.628413,1.829594 1.288477,2.619641 1.378925,1.650466 1.397638,2.757358 0.07213,4.267022 -0.94799,1.079704 -1.00022,1.274311 -0.947875,3.531913 0.09467,4.083139 -0.8808,6.064196 -3.725513,7.566022 -0.645831,0.340957 -1.276538,1.084757 -1.720245,2.0287 -0.385306,0.819706 -1.388752,2.196919 -2.22988,3.060471 -1.746342,1.792902 -2.065387,2.494713 -1.491124,3.280067 0.228292,0.312208 2.694293,1.312944 5.650237,2.292941 5.785284,1.918022 7.264442,2.719533 8.374631,4.537949 0.410179,0.671849 0.859917,1.269542 0.999414,1.328208 0.139495,0.05867 0.253629,3.838668 0.253629,8.4 l 4e-6,8.293334 h -21.76 -21.76 z m 12.801746,5.859587 C 12.996107,61.36724 12.412923,60.326629 11.201168,58.705589 10.152677,57.302956 9.291486,56.008773 9.28741,55.829628 9.28331,55.650485 9.64,54.974124 10.08,54.326607 11.055717,52.890709 11.054908,52.935599 10.12501,51.830479 9.540109,51.135365 9.277699,50.235701 8.960226,47.837058 8.68209,45.735618 8.40289,44.684271 8.091194,44.564664 7.375926,44.290188 5.251799,45.045762 4.162927,45.961989 2.345557,47.491205 2.24,47.988972 2.24,55.029765 c 0,6.080762 0.03356,6.438551 0.624368,6.655891 0.924317,0.340032 9.581363,0.231959 9.937378,-0.124057 z m 28.050702,0.0579 c 0.650214,-0.249511 0.613715,-12.655933 -0.04095,-13.921927 -0.648019,-1.253133 -2.203971,-2.494361 -3.681894,-2.937158 -1.941366,-0.581648 -2.112797,-0.37641 -2.569827,3.076643 -0.317472,2.398643 -0.579882,3.298307 -1.164784,3.993421 -0.929898,1.10512 -0.930707,1.06023 0.04501,2.496128 0.44,0.647517 0.796666,1.323878 0.792589,1.503021 -0.0041,0.179145 -0.862531,1.469644 -1.907677,2.867776 -1.186793,1.587616 -1.795068,2.668944 -1.620079,2.88 0.282073,0.340214 9.273535,0.377513 10.147615,0.0421 z m -23.734126,-0.18144 c 0.107851,-0.174506 -0.03119,-1.074506 -0.308991,-2 -0.553205,-1.843031 -3.190803,-12.807501 -3.538933,-14.711312 -0.255935,-1.399629 -0.837417,-1.981172 -1.70548,-1.705658 -0.928454,0.294678 -0.999312,0.78777 -0.567188,3.946998 0.340267,2.487664 0.531698,3.033508 1.417825,4.042749 1.233977,1.405421 1.26012,1.791635 0.224445,3.31577 -0.44,0.647517 -0.8,1.294057 -0.8,1.436752 0,0.142697 0.603488,1.08127 1.341084,2.085718 0.737596,1.004448 1.680924,2.294269 2.096285,2.866269 0.754796,1.03944 1.471351,1.320742 1.840953,0.722714 z m 5.35906,-0.08271 c 0.185461,-0.508614 -0.250902,-4.680186 -0.517448,-4.946733 -0.388096,-0.388096 -0.602292,0.223287 -0.831487,2.373335 -0.265913,2.494489 -0.164192,2.973398 0.631553,2.973398 0.31434,0 0.637162,-0.18 0.717382,-0.4 z m 7.173274,-2.574246 C 30.766795,57.233269 31.68,55.862696 31.68,55.735387 c 0,-0.127312 -0.36,-0.76126 -0.8,-1.408777 -1.035675,-1.524135 -1.009532,-1.910349 0.224445,-3.31577 0.886127,-1.009241 1.077558,-1.555085 1.417824,-4.042749 0.432125,-3.159228 0.361267,-3.65232 -0.567187,-3.946998 -0.868063,-0.275514 -1.449545,0.306029 -1.70548,1.705658 -0.34813,1.903811 -2.985728,12.868281 -3.538933,14.711312 -0.277796,0.925494 -0.411915,1.833465 -0.298041,2.017718 0.446685,0.722752 1.291149,0.02522 3.238028,-2.674678 z M 19.448568,54.807112 c 0.125279,-2.166448 0.05849,-2.596208 -0.511595,-3.291763 -0.614798,-0.750115 -0.689776,-0.766483 -1.202391,-0.262509 -0.48679,0.478583 -0.504702,0.759149 -0.163435,2.56 0.916469,4.836186 1.633302,5.215815 1.877421,0.994272 z m 6.308907,-0.07976 C 26.022864,53.465739 26.24,52.150402 26.24,51.804386 c 0,-0.997895 -0.968295,-1.148579 -1.686172,-0.2624 -0.532493,0.657334 -0.605498,1.136329 -0.486594,3.192605 0.237569,4.108406 0.825018,4.105891 1.690241,-0.0072 z m -3.21562,-3.923209 c 0.686404,-0.979975 0.62376,-2.07905 -0.141855,-2.488794 -0.866449,-0.463709 -1.92,0.117971 -1.92,1.060058 0,0.773804 0.817151,2.139942 1.28,2.139942 0.15604,0 0.507875,-0.320042 0.781855,-0.711203 z m -4.11571,-3.007344 c 0.77762,-0.6372 1.413855,-1.371069 1.413855,-1.63082 0,-0.622009 -3.475671,-4.57063 -4.023178,-4.57063 -0.919806,0 -0.984688,1.005046 -0.244075,3.780838 0.867191,3.250202 0.981467,3.579162 1.243355,3.579162 0.107903,0 0.832423,-0.521347 1.610043,-1.158547 z m 9.435858,-2.155443 c 1.126119,-4.6712 0.457181,-5.231754 -2.382924,-1.996832 -0.989494,1.127049 -1.799085,2.243049 -1.799093,2.48 -1.9e-5,0.565296 2.249138,2.483372 2.930125,2.498806 0.406774,0.0092 0.698041,-0.68457 1.251892,-2.981974 z m -3.983671,-3.424947 c 2.152686,-2.584288 2.37883,-3.383815 0.921668,-3.258519 -0.528,0.0454 -1.896,0.08254 -3.04,0.08254 -1.144,0 -2.512,-0.03715 -3.04,-0.08254 -0.720701,-0.06197 -0.96,0.05232 -0.96,0.458519 0,0.549206 3.565753,5.058934 4,5.058934 0.130165,0 1.083414,-1.016522 2.118332,-2.258934 z m 0.280258,-5.454093 c 0.771097,-0.194163 1.627391,-0.602087 1.902876,-0.906493 0.455762,-0.503613 0.442691,-0.722598 -0.145107,-2.431062 -0.355294,-1.032679 -0.823822,-1.990553 -1.041174,-2.128608 -0.514226,-0.326621 -5.716144,-0.326621 -6.23037,0 -0.217352,0.138055 -0.68588,1.095929 -1.041174,2.128608 -0.591382,1.71888 -0.603074,1.925014 -0.138315,2.438566 0.996952,1.101619 4.186976,1.53008 6.693264,0.898989 z m -4.177428,-2.028231 c -0.497352,-0.369321 -0.550428,-0.576614 -0.266286,-1.04 0.270099,-0.440483 0.758657,-0.578739 2.045124,-0.578739 1.286467,0 1.775025,0.138256 2.045124,0.578742 0.482455,0.7868 -0.490831,1.501258 -2.045124,1.501258 -0.636722,0 -1.4372,-0.207565 -1.778838,-0.461258 z m -4.156428,-2.69278 c 0.283893,-0.854721 0.883067,-1.898721 1.331498,-2.32 0.765238,-0.718901 1.048076,-0.765959 4.603768,-0.765959 3.555692,0 3.83853,0.04706 4.603768,0.765962 0.448431,0.421279 1.050206,1.473108 1.337277,2.337398 0.659407,1.98529 1.248633,1.929427 2.355963,-0.22336 0.772588,-1.502007 0.822992,-1.884179 0.822992,-6.24 v -4.64 h -9.12 -9.12 l -0.09058,4 c -0.09308,4.110585 0.270071,6.115509 1.427711,7.882291 0.751249,1.146551 1.277633,0.919674 1.847598,-0.796329 z m 0.0821,-7.605797 c -0.336152,-0.336152 -0.274882,-1.332698 0.09603,-1.561935 0.644335,-0.398221 1.638225,0.190205 1.535791,0.909255 -0.09761,0.685192 -1.170277,1.114226 -1.631823,0.65268 z m 10.24,0 c -0.461782,-0.461782 -0.206002,-1.363648 0.44538,-1.570389 0.809204,-0.256831 1.349632,0.202933 1.194529,1.016234 -0.114362,0.599669 -1.220583,0.973481 -1.639909,0.554155 z m -15.753456,1.526339 c 0.0075,-2.285695 -0.144983,-2.712434 -0.869662,-2.434349 -1.627878,0.624676 -1.291866,4.876628 0.360235,4.558463 0.393099,-0.0757 0.504248,-0.539153 0.509427,-2.124114 z m 24.101715,1.791706 c 0.606157,-0.730376 0.785626,-2.150794 0.391859,-3.101428 -0.359824,-0.868691 -1.189392,-1.501007 -1.526707,-1.16369 -0.202925,0.202923 -0.319341,4.321144 -0.127574,4.512911 0.283837,0.283834 0.925785,0.15783 1.262422,-0.247793 z m 2.301527,-9.674135 c 0.217241,-0.261759 0.311392,-0.693759 0.209225,-0.96 C 36.843674,16.696809 34.907894,16.635346 21.76,16.635346 c -13.147895,0 -15.083672,0.06146 -15.245843,0.484075 -0.102167,0.266241 -0.008,0.698241 0.209225,0.96 0.594327,0.71612 29.478909,0.71612 30.073236,0 z m -2.01797,-4.201516 c 0.109206,-0.284594 0.06553,-0.896594 -0.09707,-1.36 -0.290704,-0.828528 -0.351146,-0.844086 -3.630123,-0.93443 C 29.217484,11.532942 27.528645,11.33531 27.29848,11.14429 26.651423,10.60728 26.800646,9.1999114 27.68,7.5460746 c 0.44,-0.8275264 0.8,-1.6988867 0.8,-1.9363565 0,-0.6022617 -1.894836,-1.2336208 -2.412631,-0.8038886 -0.218838,0.1816198 -0.579524,1.80156 -0.801522,3.5998675 -0.221999,1.798308 -0.543264,3.449649 -0.713923,3.669649 -0.200865,0.25894 -1.185436,0.4 -2.791924,0.4 -1.606488,0 -2.591059,-0.14106 -2.791924,-0.4 -0.170659,-0.22 -0.491924,-1.871341 -0.713923,-3.669649 C 18.032155,6.6073895 17.671469,4.9874493 17.452631,4.8058295 16.934836,4.3760973 15.04,5.0074564 15.04,5.6097181 c 0,0.2374698 0.36,1.1088301 0.8,1.9363565 0.879354,1.6538368 1.028577,3.0612054 0.381519,3.5982154 -0.230165,0.19102 -1.919004,0.388652 -3.752977,0.439182 -3.278978,0.09034 -3.339418,0.105902 -3.630124,0.93443 -0.682194,1.944288 -1.142255,1.877444 12.921582,1.877444 11.512749,0 12.840336,-0.05277 13.01865,-0.517444 z M 22.641996,9.8353466 c 0.176199,-0.22 0.499406,-1.8872253 0.718237,-3.7049453 C 23.816289,2.3421871 23.716368,2.089892 21.76,2.089892 c -1.956368,0 -2.056289,0.2522951 -1.600233,4.0405093 0.41589,3.4545856 0.66942,4.1049457 1.600233,4.1049457 0.3089,0 0.705798,-0.18 0.881996,-0.4000004 z m -8.797193,-0.96 C 14.028541,8.343297 13.45924,7.1112023 12.93708,6.9108308 12.343064,6.6828858 10.88,7.9259383 10.88,8.6585722 c 0,0.5159344 0.231074,0.6167744 1.413333,0.6167744 0.843661,0 1.469012,-0.1612282 1.55147,-0.4 z M 32.64,8.6585722 c 0,-0.7326339 -1.463064,-1.9756864 -2.05708,-1.7477414 -0.52216,0.2003715 -1.091461,1.4324662 -0.907723,1.9645158 0.08246,0.2387718 0.707809,0.4 1.55147,0.4 1.182258,0 1.413333,-0.10084 1.413333,-0.6167744 z"
     id="path146"
     inkscape:connector-curvature="0" />
</svg>
