<?xml version="1.0" encoding="UTF-8" standalone="no"?>
<!-- Created with Inkscape (http://www.inkscape.org/) -->

<svg
   xmlns:dc="http://purl.org/dc/elements/1.1/"
   xmlns:cc="http://creativecommons.org/ns#"
   xmlns:rdf="http://www.w3.org/1999/02/22-rdf-syntax-ns#"
   xmlns:svg="http://www.w3.org/2000/svg"
   xmlns="http://www.w3.org/2000/svg"
   xmlns:sodipodi="http://sodipodi.sourceforge.net/DTD/sodipodi-0.dtd"
   xmlns:inkscape="http://www.inkscape.org/namespaces/inkscape"
   version="1.1"
   id="svg106"
   width="64"
   height="64.000023"
   viewBox="0 0 64 64.000023"
   sodipodi:docname="adv-icon-3.svg"
   inkscape:version="0.92.4 (unknown)">
  <path
     style="stroke-width:0.31999999"
     d="m 21.76,63.720899 c 0,-0.153507 -0.55831,-0.368381 -1.24069,-0.477497 C 18.898817,62.984275 15.151561,61.45009 12.859271,60.107261 10.528508,58.741894 5.27602,53.485491 3.893503,51.134813 2.553496,48.85641 1.016519,45.10615 0.756597,43.480691 0.64748,42.79831 0.432607,42.24 0.279101,42.24 0.125595,42.24 0,39.936 0,37.12 0,34.248938 0.128204,32 0.291872,32 c 0.16053,0 0.390671,-0.584777 0.511423,-1.299504 0.657193,-3.889892 3.461298,-8.76772 7.17539,-12.481811 4.203468,-4.203468 8.586172,-6.500075 14.308735,-7.498007 3.212182,-0.560157 5.112238,-0.61428 5.396874,-0.153729 0.111136,0.179822 0.187123,3.278609 0.16886,6.886195 -0.03714,7.335861 0.04205,7.582022 1.971188,6.127215 C 31.069055,22.64169 41.642045,15.478108 50.8,9.368593 54.364,6.9909539 57.28,4.8529296 57.28,4.6174272 57.28,4.3122925 56.668864,4.1620496 55.153405,4.0946208 52.806202,3.990184 51.968397,3.4020189 52.777738,2.4268232 53.128221,2.0045183 54.02064,1.92 58.129226,1.92 c 5.634531,0 5.640198,0.00299 4.642848,2.4488656 C 62.424198,5.2219894 61.644282,7.144 61.038928,8.64 c -0.952387,2.35362 -1.204246,2.72 -1.869786,2.72 -1.054985,0 -1.175353,-1.302883 -0.282124,-3.0537568 0.41502,-0.8135091 0.569273,-1.4579507 0.39152,-1.6357043 -0.177754,-0.1777539 -2.577828,1.2555888 -6.091805,3.6380731 -3.189171,2.162263 -10.108736,6.845551 -15.37681,10.407306 -5.268073,3.561756 -9.666429,6.705533 -9.77412,6.986173 C 27.928111,27.98273 27.84,29.357086 27.84,30.756215 c 0,1.848995 0.118817,2.589465 0.434976,2.710787 0.416431,0.159801 2.55215,-1.191815 19.342224,-12.240954 4.101459,-2.699071 7.87431,-5.123097 8.384109,-5.386725 C 56.660576,15.498402 57.949187,15.36 60.464109,15.36 H 64 v 10.88 10.88 h -4.760819 c -3.423235,0 -4.851469,0.112384 -5.083475,0.4 -0.177463,0.22 -0.480266,1.589875 -0.672896,3.044166 -0.192631,1.454295 -0.724135,3.686295 -1.181124,4.96 C 51.844701,46.797875 51.445872,48.2 51.415402,48.64 l -0.0554,0.8 3.887978,0.16 c 5.627539,0.231587 6.00134,0.736883 5.81902,7.865981 -0.09828,3.843101 -0.17216,4.279411 -0.906998,5.356761 l -0.8,1.172884 -10.653965,0.0022 -10.653968,0.0022 -0.866032,-0.811524 C 36.611626,62.65033 36.104486,62.439174 35.68,62.561517 35.328,62.66297 34.356,62.918234 33.52,63.128768 32.684,63.339306 32,63.621485 32,63.755834 32,63.890077 29.696,64 26.88,64 24.064,64 21.76,63.874403 21.76,63.720899 Z m 10.16367,-2.457424 c 1.27802,-0.247961 2.75402,-0.673379 3.28,-0.945373 L 36.16,59.823565 v -4.176397 -4.1764 l 0.935386,-0.935382 C 37.609846,50.020922 38.373046,49.6 38.791386,49.6 39.966179,49.6 40.32,48.992637 40.32,46.976 c 0,-1.438858 0.108198,-1.856 0.481408,-1.856 0.264774,0 1.842784,0.936 3.506691,2.08 1.663907,1.144 3.229642,2.08 3.479411,2.08 0.619773,0 0.926941,-0.459162 1.92665,-2.88 1.107165,-2.681046 1.79328,-6.000074 1.800285,-8.708742 0.0048,-1.856087 0.09761,-2.198004 0.681414,-2.510448 0.371722,-0.198941 1.054189,-0.289386 1.516595,-0.200992 0.462404,0.08839 1.094266,0.02502 1.404141,-0.14081 C 55.630349,34.564054 55.68,33.863315 55.68,26.887627 c 0,-4.7115 -0.121882,-7.725183 -0.317312,-7.845965 -0.411699,-0.254444 -3.088576,1.587195 -3.544035,2.438226 -0.224765,0.419976 -0.317098,2.48682 -0.256807,5.748509 0.08139,4.403089 0.02211,5.1648 -0.437795,5.624694 -0.435101,0.435104 -0.620707,0.458253 -1.019622,0.127184 -0.387904,-0.321933 -0.50577,-1.358514 -0.576058,-5.066237 -0.05723,-3.018882 -0.211833,-4.702506 -0.438739,-4.777887 -0.192704,-0.06402 -1.056704,0.370127 -1.92,0.964768 L 45.6,25.182084 45.51142,29.8757 l -0.08858,4.693615 0.774237,0.294365 c 0.425831,0.161901 1.062973,0.218861 1.415869,0.126576 0.976035,-0.255238 2.043517,0.449254 1.926474,1.271395 L 49.44,36.96 26.010149,37.04207 c -21.904742,0.07673 -23.449263,0.11839 -23.728063,0.64 -0.341356,0.638646 0.278859,4.689593 1.110949,7.256185 2.396425,7.391808 8.769853,13.587136 16.286965,15.83184 4.329759,1.292922 7.470404,1.419479 12.24367,0.493376 z M 58.24,61.44 c 0.570496,-0.570496 0.64,-1.066666 0.64,-4.568797 C 58.88,51.228022 59.236029,51.52 52.354906,51.52 H 46.826102 L 44.972294,50.221405 C 43.952701,49.507174 42.920826,48.998656 42.679242,49.09136 42.421661,49.1902 42.24,49.727274 42.24,50.389958 42.24,51.515933 42.2348,51.52 40.8,51.52 c -2.446189,0 -2.72,0.531514 -2.72,5.28 0,5.72729 -0.881027,5.28 10.4,5.28 8.693334,0 9.149942,-0.02995 9.76,-0.64 z M 40.41903,59.316506 c -0.110486,-0.287924 -0.05447,-0.755924 0.124474,-1.04 0.272941,-0.433293 1.144666,-0.531245 5.410928,-0.607984 5.572349,-0.100237 6.356928,-0.0096 6.655792,0.769276 0.473642,1.234288 -0.275923,1.402202 -6.25945,1.402202 -5.010524,0 -5.756112,-0.0658 -5.931744,-0.523494 z m 14.416692,0.04349 c -0.463437,-1.207696 0.945904,-2.2892 1.678153,-1.287789 0.298279,0.40792 0.328205,0.750199 0.102467,1.171994 -0.382435,0.714585 -1.522396,0.788717 -1.78062,0.115795 z m -14.4,-4.16 c -0.517424,-1.348384 -0.184522,-1.412989 7.773884,-1.508659 6.393028,-0.07685 7.692877,-0.01475 8.193978,0.391462 0.378912,0.307162 0.517792,0.685504 0.38176,1.04 -0.195312,0.508973 -0.904096,0.557197 -8.189622,0.557197 -6.79441,0 -8.003092,-0.0711 -8.16,-0.48 z M 25.666063,34.464064 c 0.134275,-0.211235 0.246342,-5.082432 0.249037,-10.824882 0.0057,-12.195928 0.208434,-11.484197 -3.097363,-10.87508 -6.964865,1.283327 -12.869262,5.138686 -16.505913,10.777766 -1.913808,2.967599 -2.707536,4.791988 -3.505497,8.057409 -0.590776,2.417577 -0.612365,2.775696 -0.186142,3.087741 0.707553,0.518009 22.710181,0.305148 23.045878,-0.222954 z m 11.08859,0.283962 c 0.500867,-0.309552 0.475673,-3.297918 -0.02922,-3.466217 -0.217015,-0.07234 -1.475402,0.574048 -2.796416,1.436415 -2.842989,1.855923 -2.683993,1.716845 -2.430897,2.126365 0.221379,0.358198 4.652423,0.2768 5.256538,-0.09656 z m 6.318345,0.04564 c 0.07707,-0.07707 0.199338,-6.090933 0.146256,-7.19367 -0.03155,-0.655772 -0.945097,-0.457267 -2.200604,0.47818 -1.643936,1.22485 -1.648279,1.235323 -1.653751,3.985919 -0.0056,2.824675 0.248138,3.143187 2.343357,2.941376 0.701702,-0.06759 1.315837,-0.162902 1.364742,-0.211805 z m 18.736208,-0.302332 c 0.143546,-0.226237 0.2632,-3.957706 0.265895,-8.292156 0.0055,-8.925566 0.0707,-8.698544 -2.45024,-8.53773 l -1.544861,0.09855 -0.08518,8.537064 -0.08518,8.537064 0.725184,0.153165 c 1.120448,0.236649 2.884422,-0.03895 3.17439,-0.495955 z M 1.041023,14.64 C 0.147718,14.015532 0.010326,13.732723 0.00553,12.508544 9.3e-4,11.322698 0.162661,10.951864 1.017634,10.188544 1.748569,9.5359661 2.370364,9.28 3.224679,9.28 4.292903,9.28 4.613072,9.055559 6.367045,7.0771715 8.147328,5.0691072 8.32,4.7459091 8.32,3.4217235 c 0,-2.1746566 1.149748,-3.4229176 3.148446,-3.4182118 1.433386,0.00337 1.535232,0.06729 2.611554,1.6389312 0.856236,1.2502728 1.439236,1.7417696 2.475551,2.0870067 1.187642,0.3956499 1.473046,0.3908278 2.304109,-0.038931 C 19.381367,3.4207331 20.33994,3.2 20.989823,3.2 c 0.99126,0 1.43935,-0.257745 2.781605,-1.6 l 1.6,-1.6 h 8.40005 c 7.171514,0 8.426989,0.070202 8.584244,0.48 0.265721,0.6924658 -0.09916,1.4382188 -0.709959,1.4510135 -0.289168,0.00606 -3.776179,0.00138 -7.748909,-0.010389 L 26.67371,1.8992226 25.176855,3.216807 C 23.865723,4.370912 23.68,4.6924438 23.68,5.808233 23.68,7.4148883 23.26936,8.1849581 22.086405,8.796688 20.340109,9.6997322 18.533602,9.1338966 17.907779,7.4878547 17.24656,5.7487178 14.387563,4.933561 12.454711,5.9330774 11.930283,6.2042698 11.374732,6.3479907 11.220156,6.2524566 10.658017,5.9050362 9.669299,6.6017782 7.901489,8.5910966 6.246998,10.452897 6.101629,10.738818 6.157449,12.021386 6.280837,14.856452 3.434545,16.3132 1.041023,14.64 Z M 3.776919,12.359271 C 3.715299,11.927424 3.448477,11.68 3.044382,11.68 c -0.732182,0 -1.076124,1.074284 -0.464887,1.452049 0.640397,0.395787 1.30313,-0.03192 1.197424,-0.772778 z M 21.44,6.24 c 0,-0.64 -0.16,-0.8 -0.8,-0.8 -0.562424,0 -0.8,0.1742221 -0.8,0.5866666 C 19.84,6.7685053 20.111495,7.04 20.853333,7.04 21.265778,7.04 21.44,6.8024243 21.44,6.24 Z M 12.102256,3.12 C 12.035136,2.6474188 11.780072,2.4 11.36,2.4 c -0.420072,0 -0.675139,0.2474188 -0.742256,0.72 -0.08388,0.5906176 0.0495,0.72 0.742256,0.72 0.692756,0 0.826137,-0.1293824 0.742256,-0.72 z M 29.132744,5.9353562 C 28.920653,5.6798019 28.841992,5.1718096 28.957942,4.8064845 29.159669,4.1708989 29.35744,4.1460893 33.544381,4.2311283 c 4.33943,0.088137 4.376512,0.095188 4.483616,0.8526829 0.0594,0.420096 -0.0846,0.8858912 -0.32,1.0350998 -0.235399,0.149209 -2.174365,0.2734938 -4.308816,0.2761888 -3.006748,0.0038 -3.967669,-0.099751 -4.266437,-0.4597436 z M 40.692003,6.118911 c -0.235398,-0.1492086 -0.379398,-0.6150038 -0.32,-1.0350998 0.07791,-0.5510346 0.341754,-0.790919 0.947117,-0.8611216 0.98111,-0.1137763 1.410125,0.6231478 0.908474,1.5604918 -0.354196,0.6618221 -0.85009,0.7702397 -1.535591,0.3357296 z"
     id="path209"
     inkscape:connector-curvature="0" />
</svg>
