<?xml version="1.0" encoding="UTF-8" standalone="no"?>
<!-- Created with Inkscape (http://www.inkscape.org/) -->

<svg
   xmlns:dc="http://purl.org/dc/elements/1.1/"
   xmlns:cc="http://creativecommons.org/ns#"
   xmlns:rdf="http://www.w3.org/1999/02/22-rdf-syntax-ns#"
   xmlns:svg="http://www.w3.org/2000/svg"
   xmlns="http://www.w3.org/2000/svg"
   xmlns:sodipodi="http://sodipodi.sourceforge.net/DTD/sodipodi-0.dtd"
   xmlns:inkscape="http://www.inkscape.org/namespaces/inkscape"
   version="1.1"
   id="svg126"
   width="56.708511"
   height="63.903206"
   viewBox="0 0 56.708511 63.903206"
   sodipodi:docname="adv-icon-5.svg"
   inkscape:version="0.92.4 (unknown)">
  <path
     style="stroke-width:0.31999999"
     d="M 22.434257,61.914982 C 14.800159,59.351078 13.018866,58.606522 10.617255,56.975616 5.821119,53.718624 2.530051,49.141514 0.793325,43.312813 0.293517,41.635389 0.223025,39.27831 0.117649,20.72 L 0,0 h 28.354256 28.354256 l -0.117648,20.72 c -0.105376,18.55831 -0.175869,20.915389 -0.675677,22.592813 -1.731149,5.809987 -5.029478,10.406953 -9.783251,13.635181 -2.497843,1.696252 -3.675568,2.19246 -11.37768,4.793721 l -6.4,2.161491 z m 12.534079,-2.269273 c 3.402256,-1.162864 6.980455,-2.533088 7.951549,-3.044947 4.098166,-2.160119 7.382186,-5.540615 9.443341,-9.720762 2.262723,-4.588934 2.23103,-4.225293 2.23103,-25.6 V 2.08 h -26.24 -26.239999 v 19.2 c 0,21.374707 -0.03169,21.011066 2.231029,25.6 2.018654,4.093952 5.240947,7.452986 9.23485,9.626742 1.652994,0.899671 13.718531,5.207168 14.668201,5.236666 0.293744,0.0091 3.317744,-0.934838 6.719999,-2.097699 z M 21.794257,57.331414 c -6.782608,-2.336976 -8.476872,-3.187507 -10.989639,-5.51687 l -1.650362,-1.529904 0.704045,-0.717475 0.704044,-0.717475 0.575956,0.649241 c 0.929363,1.047613 3.348122,2.849575 4.82077,3.591443 0.750648,0.378151 3.848827,1.528746 6.884842,2.55688 l 5.520027,1.869335 5.755158,-1.967315 c 3.165338,-1.082023 6.493712,-2.372644 7.39639,-2.868052 3.477255,-1.908377 6.840663,-6.05527 8.190275,-10.09814 C 50.389447,40.53505 50.410823,40.00465 50.522301,22.32 L 50.636778,4.16 h 0.955606 0.955603 l -0.102045,18.32 -0.102044,18.32 -0.867652,2.56 c -1.53119,4.51776 -4.92943,8.68703 -8.960227,10.993219 -1.408419,0.805818 -13.645295,5.213162 -14.291883,5.147498 -0.104434,-0.01061 -2.997879,-0.986794 -6.429879,-2.169303 z M 6.524807,46.48 C 6.157792,45.82 5.522889,44.272 5.113912,43.04 4.376126,40.817498 4.369498,40.65689 4.265421,22.48 L 4.160525,4.16 h 22.096866 22.096865 v 0.9576992 0.9576995 l -21.039999,0.0823 -21.040001,0.082301 V 23.2 c 0,18.523046 0.01667,18.71313 1.947234,22.20344 0.732581,1.324451 0.744655,1.42744 0.214519,1.829824 C 7.561602,47.896957 7.242903,47.771347 6.524807,46.48 Z m 6.30945,-4.24 v -5.12 h 1.44 c 1.432381,0 1.44,-0.0059 1.44,-1.12 0,-1.114074 -0.0076,-1.12 -1.44,-1.12 h -1.44 v -4.96 -4.96 h 1.44 c 1.432381,0 1.44,-0.0059 1.44,-1.12 0,-1.114074 -0.0076,-1.12 -1.44,-1.12 h -1.44 V 17.6 12.48 h 15.519999 15.52 v 5.12 5.12 h -1.44 c -1.432381,0 -1.44,0.0059 -1.44,1.12 0,1.114074 0.0076,1.12 1.44,1.12 h 1.44 v 4.96 4.96 h -1.44 c -1.432381,0 -1.44,0.0059 -1.44,1.12 0,1.114074 0.0076,1.12 1.44,1.12 h 1.44 v 5.12 5.12 h -15.52 -15.519999 z m 11.039532,2.64 c -0.649183,-1.58793 -0.810178,-2.707306 -0.529278,-3.68 0.165185,-0.572 0.40336,-1.292 0.529278,-1.6 0.211861,-0.518224 -0.11976,-0.56 -4.445296,-0.56 h -4.674236 v 3.2 3.2 h 4.674236 c 4.325536,0 4.657157,-0.04178 4.445296,-0.56 z m 6.325337,-0.07807 c 1.754924,-1.380422 1.664149,-4.010204 -0.177177,-5.132918 -1.294835,-0.789501 -2.04055,-0.789501 -3.335385,0 -2.59769,1.583891 -1.387708,5.770992 1.667692,5.770992 0.56853,0 1.398721,-0.287133 1.84487,-0.638074 z M 41.954256,42.24 v -3.2 H 37.28002 c -4.325536,0 -4.657159,0.04178 -4.445296,0.56 0.649184,1.58793 0.810179,2.707306 0.52928,3.68 -0.165188,0.572 -0.403364,1.292 -0.52928,1.6 -0.211863,0.518224 0.11976,0.56 4.445296,0.56 h 4.674236 z m -2.939724,-6.16 -0.100276,-1.04 h -10.56 -10.559999 l -0.100275,1.04 -0.100275,1.04 H 28.354256 39.114807 Z M 23.875762,32.4 c -0.931087,-2.297292 -0.926807,-2.774222 0.04595,-5.12 0.128261,-0.309297 -0.892327,-0.4 -4.500793,-0.4 h -4.666662 v 3.04 3.04 h 4.674236 c 4.324784,0 4.657268,-0.04187 4.447269,-0.56 z m 6.536554,-0.32 c 2.142283,-1.988287 0.871148,-5.2 -2.05806,-5.2 -2.929207,0 -4.200341,3.211713 -2.058059,5.2 0.655749,0.608611 1.290446,0.88 2.058059,0.88 0.767614,0 1.402311,-0.271389 2.05806,-0.88 z m 11.54194,-2.16 v -3.04 h -4.666665 c -3.608467,0 -4.629056,0.0907 -4.500794,0.4 0.972762,2.345778 0.97704,2.822708 0.04595,5.12 -0.209997,0.518134 0.122487,0.56 4.447271,0.56 h 4.674236 z m -2.939724,-6.16 0.100275,-1.04 H 28.374531 17.634257 v 0.906667 c 0,0.498666 0.09793,1.004601 0.217632,1.124298 0.119697,0.119698 4.907697,0.179698 10.639999,0.133334 l 10.422368,-0.0843 z M 23.873789,20.24 c -0.649183,-1.587931 -0.810178,-2.707307 -0.529278,-3.68 0.165185,-0.572 0.40336,-1.292 0.529278,-1.6 0.211861,-0.518224 -0.11976,-0.56 -4.445296,-0.56 h -4.674236 v 3.2 3.2 h 4.674236 c 4.325536,0 4.657157,-0.04178 4.445296,-0.56 z m 5.782262,0.09152 c 2.126931,-0.888688 2.5085,-3.626464 0.715678,-5.135024 -1.248499,-1.050543 -2.786446,-1.050543 -4.034945,0 -1.758373,1.479573 -1.412035,4.227439 0.645494,5.121394 1.325729,0.576002 1.327803,0.576013 2.673773,0.01363 z M 41.954256,17.6 V 14.4 H 37.28002 c -4.325536,0 -4.657159,0.04178 -4.445296,0.56 0.649184,1.587931 0.810179,2.707307 0.52928,3.68 -0.165188,0.572 -0.403364,1.292 -0.52928,1.6 -0.211863,0.518224 0.11976,0.56 4.445296,0.56 h 4.674236 z"
     id="path167"
     inkscape:connector-curvature="0" />
</svg>
