<?xml version="1.0" encoding="UTF-8" standalone="no"?>
<!-- Created with Inkscape (http://www.inkscape.org/) -->

<svg
   xmlns:dc="http://purl.org/dc/elements/1.1/"
   xmlns:cc="http://creativecommons.org/ns#"
   xmlns:rdf="http://www.w3.org/1999/02/22-rdf-syntax-ns#"
   xmlns:svg="http://www.w3.org/2000/svg"
   xmlns="http://www.w3.org/2000/svg"
   xmlns:sodipodi="http://sodipodi.sourceforge.net/DTD/sodipodi-0.dtd"
   xmlns:inkscape="http://www.inkscape.org/namespaces/inkscape"
   version="1.1"
   id="svg106"
   width="63.840004"
   height="63.999146"
   viewBox="0 0 63.840004 63.999146"
   sodipodi:docname="head-icon-4.svg"
   inkscape:version="0.92.4 (unknown)">
  <path
     style="stroke-width:0.31999999"
     d="M 2.24,63.695554 C 1.888,63.549958 1.24,63.043484 0.8,62.570057 L 0,61.709282 V 50.061218 38.413151 l 1.04616,-1.046153 1.04615,-1.046154 h 7.48807 7.48806 l 0.837094,0.786406 0.83709,0.786404 2.67801,-2.706404 2.67801,-2.706406 -3.140735,-11.679491 C 18.944793,13.315153 17.913336,8.9500294 18.085013,8.6432592 18.247048,8.3537193 20.732352,7.5306112 24.376429,6.5596048 l 6.023576,-1.6050512 0.16,-2.1688595 c 0.106316,-1.4411454 0.321054,-2.27055677 0.64,-2.47195497 0.680893,-0.4299481 31.21608,-0.4124369 32.021037,0.018363 0.605421,0.3240118 0.618963,1.01053737 0.618963,31.38103787 0,20.791448 -0.109443,31.254274 -0.331258,31.668741 -0.321939,0.601549 -0.87792,0.618912 -19.76,0.617177 -12.054585,-9.6e-4 -19.869028,-0.12408 -20.588768,-0.324003 -0.638014,-0.177219 -1.782858,-0.815085 -2.544098,-1.417475 l -1.384073,-1.095254 -0.56175,0.923721 C 17.597812,63.849215 16.85698,64.00287 9.5359,63.980559 5.87516,63.969409 2.592,63.841151 2.24,63.695554 Z m 14.4,-13.61471 v -11.2 l -2.95418,-0.09193 -2.95418,-0.09193 -0.0858,7.611929 -0.0858,7.611931 h -0.96 -0.96 l -0.0858,-7.611933 -0.0858,-7.611929 -2.95418,0.09193 -2.95418,0.09193 -0.0844,10.877882 c -0.0464,5.982835 -0.0138,11.061651 0.0724,11.286262 0.12188,0.31759 1.70572,0.389203 7.12435,0.322118 l 6.96764,-0.08626 z m -8.02888,8.360122 c -0.3835,-0.999386 0.005,-1.640122 0.99327,-1.640122 0.84846,0 0.95561,0.107645 0.95561,0.96 0,0.809882 -0.13789,0.975862 -0.88181,1.06143 -0.56275,0.06473 -0.94885,-0.07324 -1.06707,-0.381308 z m 41.203688,2.470281 c 0.701859,-0.635171 0.745584,-1.368368 0.131757,-2.209241 -0.411206,-0.563306 -0.984957,-0.636064 -6.16,-0.781162 l -5.70656,-0.16 v -0.96 -0.96 l 7.711651,-0.16 c 8.357216,-0.173395 8.768349,-0.263421 8.768349,-1.92 0,-1.656579 -0.411133,-1.746605 -8.768349,-1.92 l -7.711651,-0.16 v -0.96 -0.96 l 9.173862,-0.16 c 5.045626,-0.088 9.238119,-0.232 9.316656,-0.32 0.742701,-0.832205 0.885709,-1.687571 0.404848,-2.421459 L 56.46525,46.080844 h -8.653658 c -5.353238,0 -8.889728,-0.126339 -9.272624,-0.331258 -0.746227,-0.399369 -0.821795,-1.762435 -0.11279,-2.034505 0.278393,-0.106832 3.508109,-0.194237 7.177142,-0.194237 7.221392,0 7.676685,-0.104384 7.676685,-1.76 0,-1.773382 0.105709,-1.76 -13.903674,-1.76 -9.935822,0 -12.970827,-0.09186 -13.215237,-0.4 -0.174502,-0.22 -0.499124,-1.192 -0.721382,-2.16 -0.222258,-0.968 -0.47494,-1.883088 -0.561516,-2.033533 -0.08657,-0.150441 -1.363585,0.926381 -2.8378,2.392938 l -2.680391,2.666464 v 8.766723 8.766723 l 1.486833,1.320343 c 0.817758,0.726188 1.789758,1.495238 2.16,1.709001 0.496402,0.286605 4.027665,0.391639 13.44797,0.4 11.448071,0.01018 12.835578,-0.04366 13.36,-0.518256 z M 61.280005,32.000844 V 2.5608436 h -14.08 -14.08 v 17.4400004 17.44 h 1.28 1.28 V 24.630801 c 0,-9.968979 0.08871,-12.837374 0.4,-12.933273 0.22,-0.06778 0.814451,-0.214631 1.321002,-0.326344 1.349516,-0.297618 2.758998,-1.8376103 2.758998,-3.0144663 0,-0.6348233 0.215274,-1.0885683 0.618963,-1.3046153 0.773853,-0.4141536 12.158099,-0.4371706 12.808311,-0.025898 0.256998,0.1625593 0.616998,0.902863 0.8,1.645119 0.374368,1.5184636 1.423459,2.4734716 3.092022,2.8147286 l 1.080704,0.221028 v 3.312006 c 0,2.742915 -0.09161,3.369794 -0.533178,3.648325 -1.022803,0.645169 -1.546822,-0.274146 -1.546822,-2.71367 0,-2.115785 -0.03703,-2.222697 -0.88,-2.540444 -1.1524,-0.434385 -2.818698,-2.058772 -3.297402,-3.214465 l -0.380243,-0.9179885 -4.681177,0.00461 -4.681178,0.00461 -0.858032,1.5562085 c -0.640963,1.162513 -1.227885,1.735254 -2.32,2.263937 l -1.461968,0.707725 v 11.811454 11.811454 l 3.44,-0.0022 3.44,-0.0022 -0.941462,-0.620605 c -2.365677,-1.559443 -3.15784,-5.172625 -1.701978,-7.762986 2.127158,-3.784765 8.026842,-3.77255 10.119456,0.02095 1.420474,2.575042 0.648128,6.339654 -1.578438,7.693712 l -0.956605,0.581747 1.684976,0.199559 c 0.926736,0.10976 2.047017,0.46456 2.489513,0.788448 1.240077,0.907683 1.984836,2.578432 1.775645,3.983392 -0.139405,0.936291 -0.07236,1.2 0.305111,1.2 0.417612,0 0.483782,-1.001325 0.483782,-7.32082 0,-7.826499 0.105901,-8.353389 1.584643,-7.884054 0.638183,0.202551 0.655357,0.424515 0.655357,8.469859 0,6.706349 0.09,8.434429 0.478029,9.178435 0.994608,1.907079 0.204621,4.381655 -1.715853,5.374768 -0.892432,0.461498 -0.927062,0.55137 -0.610214,1.583748 0.651036,2.12146 -1.536352,4.998247 -3.800324,4.998247 -0.503804,0 -0.591638,0.26129 -0.591638,1.76 v 1.76 h 4.4 4.4 z m -4.467242,-7.504628 c -0.667702,-0.804533 -0.270345,-1.615372 0.791626,-1.615372 0.763754,0 0.977299,0.153353 1.063613,0.763811 0.16647,1.177363 -1.101738,1.759475 -1.855239,0.851561 z M 30.232119,36.400844 c -0.151963,-0.572 -1.220356,-4.542057 -2.374206,-8.822349 -1.153849,-4.280293 -2.097908,-8.114823 -2.097908,-8.521178 0,-0.521055 0.286161,-0.85736 0.970846,-1.140965 1.517797,-0.628693 2.229154,-1.766506 2.229154,-3.565523 0,-1.357418 0.105538,-1.611792 0.8,-1.92821 0.749078,-0.341303 0.8,-0.516181 0.8,-2.7473768 0,-1.7708713 -0.102733,-2.3453542 -0.4,-2.2367952 -0.22,0.080342 -2.452,0.6919767 -4.96,1.3591882 -2.508,0.6672112 -4.56,1.3299858 -4.56,1.4728308 0,0.142846 1.233848,4.838618 2.741884,10.435049 1.508037,5.596431 3.107678,11.543329 3.554758,13.215329 0.44708,1.672 0.87773,3.148 0.957001,3.28 0.07927,0.132 0.700022,0.24 1.379448,0.24 h 1.23532 z m 19.399886,-1.968 c 0.891936,-0.891936 1.088,-1.330195 1.088,-2.432 0,-1.111294 -0.195418,-1.539418 -1.128643,-2.472643 -1.040144,-1.040143 -1.243831,-1.115659 -2.597664,-0.963062 -2.12152,0.239126 -3.153693,1.354984 -3.153693,3.409382 0,2.284208 1.232381,3.480637 3.632,3.526038 0.808202,0.0153 1.339738,-0.247453 2.16,-1.067715 z m -19.072,-11.567404 v -4.975404 l -1.136241,1.103503 -1.136241,1.103503 1.049438,3.871901 c 0.57719,2.129545 1.088499,3.871901 1.13624,3.871901 0.04774,0 0.0868,-2.238932 0.0868,-4.975404 z"
     id="path199"
     inkscape:connector-curvature="0" />
</svg>
