<?xml version="1.0" encoding="UTF-8" standalone="no"?>
<!-- Created with Inkscape (http://www.inkscape.org/) -->

<svg
   xmlns:dc="http://purl.org/dc/elements/1.1/"
   xmlns:cc="http://creativecommons.org/ns#"
   xmlns:rdf="http://www.w3.org/1999/02/22-rdf-syntax-ns#"
   xmlns:svg="http://www.w3.org/2000/svg"
   xmlns="http://www.w3.org/2000/svg"
   xmlns:sodipodi="http://sodipodi.sourceforge.net/DTD/sodipodi-0.dtd"
   xmlns:inkscape="http://www.inkscape.org/namespaces/inkscape"
   version="1.1"
   id="svg126"
   width="64.000008"
   height="64"
   viewBox="0 0 64.000008 64"
   sodipodi:docname="head-icon-3.svg"
   inkscape:version="0.92.4 (unknown)">
  <path
     style="stroke-width:0.31999999"
     d="m 14.595379,63.496819 c -0.403052,-1.050336 0.362838,-1.698553 2.126969,-1.800179 L 18.399995,61.6 18.499555,60.216352 C 18.665371,57.911776 18.691685,57.92 11.15054,57.92 3.635703,57.92 2.853473,57.754822 1.051438,55.787459 L 0,54.639558 V 36.264666 17.889775 l 1.371973,-1.391661 c 0.906157,-0.919159 1.856822,-1.523998 2.8,-1.781433 C 4.957388,14.502306 5.78,14.275873 6,14.213497 6.304464,14.127177 6.4,12.416259 6.4,7.0500432 V 0 h 21.571274 21.571273 l 0.230237,2.7639486 c 0.12663,1.5201717 0.162182,4.5305029 0.079,6.6896252 -0.08317,2.1591222 -0.02269,4.1553452 0.134393,4.4360512 0.240794,0.430277 1.008055,0.510375 4.888887,0.510375 4.983011,0 5.699773,0.157295 7.751049,1.70098 l 1.354093,1.01902 0.0099,18.969776 0.0099,18.969776 -1.154691,1.030224 c -1.940714,1.731517 -2.299382,1.799786 -9.565309,1.820691 -3.696,0.01062 -6.90879,0.139059 -7.139536,0.285392 -0.277696,0.176109 -0.385885,0.796528 -0.32,1.835101 0.09781,1.54175 0.119015,1.570544 1.219536,1.655421 2.248701,0.173437 2.56,0.338781 2.56,1.359715 V 64 H 32.194224 C 16.661239,64 14.767684,63.94586 14.595371,63.496819 Z M 43.135995,61.376 c 0.2112,-0.2112 0.381795,-0.8232 0.379101,-1.36 -0.01,-1.985107 0.308976,-1.921005 -10.428586,-2.096 -8.836862,-0.144019 -9.85218,-0.215056 -10.164809,-0.711194 -0.842614,-1.337209 -0.467411,-1.366051 18.498035,-1.421798 15.842944,-0.04657 18.147757,-0.115136 19.019283,-0.565818 0.989904,-0.5119 1.478035,-1.52902 1.264995,-2.635881 C 61.59651,52.026768 60.57443,51.992682 39.355678,51.84 L 17.119995,51.68 15.741016,50.744918 C 14.677911,50.024026 13.955311,49.795632 12.586427,49.747837 10.681397,49.681317 10.074416,49.227312 10.593582,48.257242 10.842296,47.792515 11.304815,47.68 12.966447,47.68 c 1.733215,0 2.313935,0.153827 3.624132,0.96 l 1.560199,0.96 h 14.380609 c 10.75825,0 14.477334,-0.09673 14.764608,-0.384 0.49679,-0.49679 0.49679,-2.57521 0,-3.072 C 47.008545,45.85655 43.239166,45.76 32.30427,45.76 H 17.696546 l -3.648275,-2.362579 c -3.86808,-2.504919 -4.499473,-3.330519 -3.107695,-4.063571 0.40668,-0.214202 2.014386,-1.231943 3.572679,-2.261652 L 17.346514,35.2 h 14.547778 c 9.416199,0 14.766109,-0.116848 15.16674,-0.331258 0.599136,-0.320649 0.618963,-0.837968 0.618963,-16.148742 0,-15.3107754 -0.01983,-15.8280941 -0.618963,-16.1487412 C 46.252437,2.1385115 9.642815,2.1214664 8.959995,2.5535198 c -0.419388,0.2653672 -0.48,3.2044145 -0.48,23.2751002 0,12.634261 -0.116499,23.151381 -0.258885,23.371381 C 8.052578,49.460397 7.139167,49.6 5.603967,49.6 c -2.913037,0 -3.363972,0.350468 -3.363972,2.61447 0,1.387063 0.136955,1.736692 0.993842,2.537143 0.546613,0.510614 1.230613,0.941782 1.52,0.958153 0.289387,0.01638 3.879414,0.05237 7.977839,0.08 6.237444,0.04205 7.501123,0.128448 7.7551,0.530234 0.16688,0.264001 0.305624,1.5 0.308319,2.746666 0.0027,1.246668 0.1009,2.362668 0.218233,2.48 0.117334,0.117334 5.056534,0.213334 10.976,0.213334 7.944296,0 10.863224,-0.100557 11.146667,-0.384 z M 4.523975,53.202176 c -0.433948,-0.810838 0.02431,-1.441373 0.952209,-1.310173 0.572599,0.08096 0.763811,0.308269 0.763811,0.907997 0,1.012618 -1.234482,1.301939 -1.71602,0.402176 z m 3.919964,0.09925 c -0.343531,-0.895224 0.128487,-1.51164 1.074237,-1.402856 0.700225,0.08054 0.881819,0.266176 0.881819,0.90143 0,0.635254 -0.181594,0.820886 -0.881819,0.90143 -0.575061,0.06615 -0.948756,-0.073 -1.074237,-0.4 z m 4.151776,-0.02144 c -0.302272,-0.787708 0.132589,-1.44 0.96,-1.44 0.827412,0 1.262273,0.652292 0.96,1.44 -0.101306,0.264 -0.533306,0.48 -0.96,0.48 -0.426693,0 -0.858693,-0.216 -0.96,-0.48 z m -1.71572,-20.31263 c -0.387844,-0.244701 -0.499447,-1.315308 -0.581292,-5.576355 -0.06567,-3.41925 0.02267,-5.50514 0.251259,-5.932259 0.336965,-0.629623 0.6222,-0.658746 6.451893,-0.658746 5.657259,0 6.16684,-0.04806 7.030592,-0.663108 0.512186,-0.364709 1.180762,-0.615055 1.485723,-0.556325 1.121449,0.215972 0.794183,1.245709 -0.990579,3.116846 l -1.767815,1.853369 0.187219,3.548879 c 0.157804,2.991293 0.103243,3.677043 -0.347267,4.364608 L 22.065241,33.28 16.712618,33.2751 c -2.943943,-0.0027 -5.568623,-0.141181 -5.832623,-0.307741 z m 9.60792,-2.748192 c 0.459148,-1.207651 0.380213,-2.373109 -0.175162,-2.586227 -0.305905,-0.117386 -1.074918,0.36273 -2.066291,1.290044 -0.868477,0.812358 -1.644954,1.477015 -1.725504,1.477015 -0.374807,0 -2.440963,-3.200693 -2.440963,-3.781308 0,-0.992308 1.291962,-1.284081 1.864916,-0.421167 0.661286,0.995951 1.217607,0.850479 2.800347,-0.732262 1.39127,-1.39127 1.802089,-2.38851 1.014737,-2.463216 -1.791106,-0.169947 -6.840966,0.168241 -7.0351,0.471139 -0.283255,0.441947 -0.325606,6.344154 -0.05066,7.060642 0.161425,0.420667 0.811436,0.506172 3.847921,0.506172 3.627547,0 3.655916,-0.0059 3.965763,-0.820832 z m 9.004083,2.779744 c -0.623116,-0.394966 -0.330332,-1.769799 0.406846,-1.91044 0.849098,-0.161994 1.534444,0.816652 1.117493,1.595733 -0.343739,0.642281 -0.844452,0.745657 -1.524339,0.314707 z m 4.187997,0.06916 c -0.573584,-0.231446 -0.49415,-1.603468 0.106173,-1.833834 0.278393,-0.10683 2.807859,-0.194236 5.621037,-0.194236 5.97022,0 7.21688,0.370196 5.849932,1.737142 -0.419142,0.419143 -1.391372,0.498653 -5.84,0.477594 -2.935427,-0.01389 -5.517142,-0.09789 -5.737142,-0.186666 z m -4.346667,-4.161403 c -0.407373,-0.407374 -0.210504,-1.63928 0.292839,-1.832431 0.677439,-0.259957 0.657368,-0.264981 1.230336,0.307987 0.379099,0.379098 0.421168,0.653676 0.171599,1.12 -0.323104,0.603724 -1.269616,0.829602 -1.694774,0.404444 z m 4.160001,0 c -0.407376,-0.407374 -0.210505,-1.63928 0.292839,-1.832431 0.278393,-0.10683 2.860109,-0.194236 5.737142,-0.194236 4.328762,0 5.317699,0.08673 5.733827,0.502857 0.60353,0.603531 0.624925,0.847077 0.118858,1.353143 -0.414464,0.414462 -11.479942,0.573392 -11.882666,0.170667 z M 29.242888,24.49869 c -0.315196,-0.821389 0.02656,-1.616249 0.738725,-1.718111 0.902402,-0.129073 1.608334,1.036767 1.041406,1.719874 -0.492349,0.593244 -1.552208,0.592195 -1.780131,-0.0018 z m 4.049001,-0.156469 c -0.249571,-0.466324 -0.2075,-0.740902 0.171597,-1.12 0.744563,-0.744563 11.049008,-0.744009 11.793651,6.4e-4 0.60353,0.60353 0.624925,0.847076 0.118858,1.353142 -0.269846,0.269846 -2.073942,0.384 -6.068742,0.384 -5.289069,0 -5.707754,-0.043 -6.015364,-0.617777 z M 10.571254,17.941035 c -0.18648,-0.348441 -0.331259,-2.735223 -0.331259,-5.461037 0,-2.7258141 0.144779,-5.1125962 0.331259,-5.4610371 C 10.881232,6.4397635 11.300142,6.4 17.092071,6.4 c 5.208056,0 6.255029,-0.078886 6.602424,-0.4974707 0.724291,-0.8727184 1.578907,-1.1863655 2.085955,-0.765553 0.783266,0.6500525 0.521903,1.2997831 -1.284791,3.1939133 l -1.744335,1.8287534 0.178123,3.320178 c 0.110318,2.056321 0.04646,3.655159 -0.167744,4.200179 l -0.345867,0.88 h -5.756662 c -5.363936,0 -5.77926,-0.04223 -6.08792,-0.618963 z m 9.587135,-1.620044 c 0.234714,-0.145061 0.43516,-0.873169 0.451762,-1.640997 0.04314,-1.99535 -0.736195,-2.01539 -2.551635,-0.06561 L 16.619391,16.16 16.003428,15.36 c -0.33878,-0.44 -0.920287,-1.195023 -1.292239,-1.677829 -1.296404,-1.682776 -0.261482,-3.186729 1.275565,-1.853655 0.413142,0.358316 0.842441,0.651484 0.953997,0.651484 0.55061,0 3.252691,-2.9496598 3.156584,-3.4458058 C 20.001625,8.54012 19.60867,8.4926237 16.474989,8.5963661 c -2.150707,0.071201 -3.606244,0.2575049 -3.750094,0.48 -0.375522,0.5808275 -0.287786,6.7527479 0.101526,7.1420599 0.406038,0.406038 6.698513,0.494063 7.331968,0.102567 z m 9.174939,0.105674 c -0.407373,-0.407374 -0.210504,-1.63928 0.292839,-1.832431 0.677439,-0.259957 0.657368,-0.264981 1.230336,0.307987 0.379099,0.379098 0.421168,0.653676 0.171599,1.12 -0.323104,0.603724 -1.269616,0.829602 -1.694774,0.404444 z m 4.160001,0 c -0.407376,-0.407374 -0.210505,-1.63928 0.292839,-1.832431 0.278393,-0.10683 2.860109,-0.194236 5.737142,-0.194236 4.328762,0 5.317699,0.08673 5.733827,0.502857 0.60353,0.603531 0.624925,0.847077 0.118858,1.353143 -0.414464,0.414462 -11.479942,0.573392 -11.882666,0.170667 z m -4.160001,-4.16 c -0.397505,-0.397506 -0.216114,-1.637127 0.266667,-1.822387 1.080396,-0.414587 2.107583,0.751332 1.406339,1.596279 -0.383751,0.462392 -1.311356,0.587758 -1.673006,0.226108 z m 4.160001,0 c -0.425481,-0.42548 -0.199078,-1.37178 0.405629,-1.695408 0.651178,-0.348501 9.586567,-0.460499 10.798903,-0.135356 0.8543,0.22912 1.200086,1.0123 0.708473,1.604656 -0.284099,0.342318 -1.617296,0.439441 -6.032189,0.439441 -3.117116,0 -5.763484,-0.096 -5.880816,-0.213333 z m 0.384698,-4.0246846 c -0.436173,-0.16144 -0.610083,-0.4703005 -0.540547,-0.96 0.101555,-0.715225 0.156752,-0.7227971 5.897485,-0.8090272 4.64735,-0.069806 5.868355,0.00138 6.165523,0.3594406 0.47151,0.5681364 0.133113,1.4835764 -0.55473,1.5006698 -5.514947,0.1370515 -10.462377,0.095965 -10.967731,-0.091083 z M 29.235715,7.84 C 28.955617,7.1100749 29.347664,6.4 30.030769,6.4 c 0.793453,0 1.394514,0.7375194 1.14051,1.3994406 C 30.920321,8.4534275 29.48267,8.4835533 29.235715,7.84 Z m 32.447288,26.058608 0.08301,-15.541393 -0.827824,-0.778608 c -0.788845,-0.741945 -1.048905,-0.782739 -5.523011,-0.866364 -2.582352,-0.04827 -4.883482,0.03736 -5.113626,0.190283 -0.621824,0.413181 -0.633219,17.621164 -0.01194,18.01492 0.236701,0.150013 1.895319,0.27496 3.685815,0.277655 3.013168,0.0045 3.327133,0.06522 4.21864,0.815373 1.28008,1.077113 1.762982,2.662672 1.564406,5.136534 -0.169286,2.108931 -0.878227,3.423827 -2.265369,4.201651 -0.411172,0.23056 -2.001341,0.393274 -3.909124,0.4 -2.060512,0.0073 -3.353968,0.149309 -3.6,0.395341 -0.473286,0.473286 -0.499529,2.002205 -0.04882,2.844358 0.316192,0.59081 0.656064,0.621341 6,0.538964 L 61.599995,49.44 Z M 6.015995,47.296 c 0.552844,-0.552845 0.552844,-29.719156 0,-30.272 -0.660148,-0.660148 -1.55936,-0.42464 -2.688,0.704 l -1.088,1.088 v 14.048 c 0,10.499555 0.097,14.144995 0.384,14.432 0.2112,0.2112 0.9744,0.384 1.696,0.384 0.7216,0 1.4848,-0.1728 1.696,-0.384 z m 38.805037,-4.107258 c 0.340429,-0.182192 0.618963,-0.611449 0.618963,-0.953904 0,-0.668937 -0.575098,-0.886617 -2.72,-1.029545 -1.129254,-0.07525 -1.28,-0.179507 -1.28,-0.885293 0,-0.656778 0.171866,-0.815126 0.96,-0.884499 2.433504,-0.214195 3.04,-0.421431 3.04,-1.038743 0,-0.337833 -0.252,-0.748275 -0.56,-0.912096 -0.31337,-0.166678 -6.006099,-0.317494 -12.925955,-0.342448 -10.967701,-0.03955 -12.42408,0.01354 -12.88,0.469456 -0.630185,0.630183 -0.630152,0.626509 -0.01119,1.245472 0.435066,0.435066 1.813002,0.502858 10.221114,0.502858 6.19112,0 9.790678,0.117181 9.917798,0.322864 0.109747,0.177574 0.108541,0.609574 -0.0026,0.96 -0.196186,0.61775 -0.497936,0.637136 -9.917917,0.637136 -8.405678,0 -9.783376,0.0678 -10.218436,0.502858 -0.276528,0.276569 -0.502814,0.554284 -0.502814,0.617142 0,0.06286 0.226286,0.340573 0.502857,0.617142 0.439725,0.439725 2.049358,0.502858 12.821037,0.502858 7.879284,0 12.541226,-0.11937 12.937143,-0.331258 z m 4.711107,-2.998003 C 49.442315,37.66519 49.419864,37.6 48.639995,37.6 c -0.778579,0 -0.802538,0.06838 -0.894784,2.553485 -0.07847,2.114109 -3.2e-4,2.622496 0.453747,2.954576 1.053517,0.770352 1.434679,-0.06372 1.333181,-2.917322 z m 7.236435,2.834967 c 0.271863,-0.271863 0.656231,-1.034784 0.854151,-1.695386 0.290336,-0.969053 0.26407,-1.430336 -0.135959,-2.387741 C 56.943505,37.642378 56.000936,37.12 54.198126,37.12 c -2.098656,0 -2.358131,0.3516 -2.358131,3.195357 0,2.957798 0.192918,3.179737 2.777142,3.194912 1.07849,0.0063 1.829744,-0.162871 2.151437,-0.484563 z M 16.579465,40.532691 c 0.115421,-1.366701 -0.477358,-1.787747 -1.719876,-1.221619 -1.04957,0.478218 -1.000411,1.508883 0.100406,2.105136 1.20468,0.652509 1.503519,0.489475 1.61947,-0.883517 z"
     id="path157"
     inkscape:connector-curvature="0" />
</svg>
