<?xml version="1.0" encoding="UTF-8" standalone="no"?>
<!-- Created with Inkscape (http://www.inkscape.org/) -->

<svg
   xmlns:dc="http://purl.org/dc/elements/1.1/"
   xmlns:cc="http://creativecommons.org/ns#"
   xmlns:rdf="http://www.w3.org/1999/02/22-rdf-syntax-ns#"
   xmlns:svg="http://www.w3.org/2000/svg"
   xmlns="http://www.w3.org/2000/svg"
   xmlns:sodipodi="http://sodipodi.sourceforge.net/DTD/sodipodi-0.dtd"
   xmlns:inkscape="http://www.inkscape.org/namespaces/inkscape"
   version="1.1"
   id="svg96"
   width="64"
   height="56.6838"
   viewBox="0 0 64 56.683799"
   sodipodi:docname="head-icon-1.svg"
   inkscape:version="0.92.4 (unknown)">
  <path
     style="stroke-width:0.31999999"
     d="M 0,32.668683 V 8.6535724 L 1.371164,7.2627329 C 2.937422,5.6739992 4.352011,5.1682133 7.236504,5.1655822 L 9.193009,5.1638022 9.384958,3.7633814 C 9.49053,2.9931499 9.906103,1.8472449 10.308453,1.2169257 10.971085,0.17885271 11.175655,0.07128301 12.48,0.07505201 c 1.227825,0.00355 1.556641,0.1514154 2.231627,1.00355479 0.471587,0.5953587 0.859696,1.5908154 0.96,2.4622946 L 15.84,5.0038022 h 1.92 1.92 l 0.168373,-1.4629008 c 0.243282,-2.1137353 1.39554,-3.45657909 2.985573,-3.47939379 0.96422,-0.013835 1.383908,0.1688267 1.92,0.8356478 1.134079,1.41063229 1.462804,2.13343449 1.474715,3.24261609 l 0.01134,1.0559693 1.837298,-0.095969 1.837298,-0.095969 0.215718,-1.5168054 c 0.472509,-3.32241809 3.112115,-4.5748946 5.086313,-2.4134239 0.517303,0.5663738 1.024407,1.5383738 1.126893,2.1599999 0.325274,1.9728761 0.323325,1.9711718 2.132902,1.8670765 1.528151,-0.087906 1.69185,-0.1707024 1.773162,-0.8968471 0.283436,-2.5310953 1.550476,-4.16000049 3.235845,-4.16000049 1.339255,0 2.813773,1.48942669 3.084119,3.11529689 0.110173,0.6625866 0.248486,1.3636185 0.30736,1.5578483 0.0616,0.2032109 1.266627,0.4254893 2.838243,0.5235389 3.012013,0.1879129 3.812819,0.595366 5.313123,2.7033282 0.799168,1.1228498 0.813011,1.2440668 0.89489,7.8353654 0.08626,6.943735 -0.06436,7.944622 -1.195539,7.944622 -0.901028,0 -1.098,-0.549563 -1.028429,-2.869359 0.03448,-1.149853 -0.06182,-2.282924 -0.214003,-2.517935 C 53.258122,17.985852 48.692822,17.91212 28.031628,17.925421 14.184352,17.934321 2.716442,18.027115 2.547382,18.1316 2.356747,18.249419 2.24,25.181407 2.24,36.382688 c 0,16.985359 0.03336,18.061484 0.56,18.067331 10.291132,0.11424 50.408099,-0.02291 50.65121,-0.173146 0.215497,-0.133184 0.317184,-1.484054 0.274825,-3.650925 -0.03698,-1.891737 0.03603,-3.606611 0.162253,-3.810832 0.416147,-0.673344 1.473098,-0.409334 1.799632,0.449517 0.339232,0.892243 0.423472,7.530899 0.110387,8.699168 l -0.19295,0.72 H 27.802678 0 Z M 53.466941,15.033455 c 0.23063,-0.430932 0.314413,-1.641299 0.222963,-3.221026 -0.188637,-3.2585596 -0.89567,-4.1168446 -3.574346,-4.3389812 -2.826534,-0.2343981 -3.282995,-0.00988 -3.47687,1.7101976 -0.48032,4.2613896 -5.566746,4.4824416 -6.215104,0.270104 C 40.168518,7.79661 39.808925,7.4037976 38.546989,7.4037976 c -1.623245,0 -2.066989,0.2855539 -2.066989,1.3301278 0,4.3944536 -5.753145,5.2244946 -6.303004,0.909372 -0.244835,-1.9213958 -0.561053,-2.2394998 -2.226222,-2.2394998 -1.503174,0 -1.532696,0.032346 -1.869375,2.0481478 -0.484824,2.9027986 -3.68756,4.1378126 -5.412953,2.0872996 C 20.101809,10.865835 19.84,10.178166 19.84,9.3632454 c 0,-1.5289048 -0.457031,-1.9594478 -2.08,-1.9594478 -1.634599,0 -2.08,0.4301145 -2.08,2.0086148 0,2.6672406 -3.351885,4.1934556 -5.106901,2.3253276 C 10.166945,11.305409 9.663546,10.189409 9.454436,9.2577404 L 9.074234,7.5637976 7.205652,7.4662926 C 5.058292,7.3542411 3.765573,7.7906548 2.869154,8.9302674 2.352097,9.5875994 2.24,10.230797 2.24,12.540285 c 0,1.948727 0.122619,2.859656 0.4,2.971582 0.22,0.08877 11.662933,0.172772 25.428741,0.186667 l 25.028741,0.02526 z M 13.370036,6.5713089 c 0.07294,-2.8780101 -0.003,-3.6297036 -0.4,-3.9591821 C 12.578623,2.2872829 12.383397,2.2856066 12,2.6037968 c -0.371996,0.3087288 -0.48,1.1695804 -0.48,3.8258488 0,1.8851168 0.102074,3.5295588 0.226832,3.6543154 0.124757,0.124757 0.520757,0.184757 0.88,0.133333 0.606352,-0.0868 0.659621,-0.3481226 0.743204,-3.6459851 z M 23.668741,9.6648344 C 23.850933,9.3244054 24,7.8283582 24,6.3402856 24,4.2076143 23.877532,3.4834575 23.421645,2.9204609 22.878297,2.2494544 22.810504,2.2390075 22.301645,2.7478672 21.870052,3.1794604 21.76,3.8972184 21.76,6.2804827 c 0,1.6450339 0.08741,3.2187477 0.194236,3.4971427 0.269648,0.7026906 1.314872,0.6339296 1.714505,-0.112791 z m 10.240001,0 C 34.090934,9.3244054 34.24,7.7627236 34.24,6.1944309 c 0,-2.3849907 -0.09847,-2.9405574 -0.601968,-3.3962135 -0.554723,-0.5020182 -0.642621,-0.5041167 -1.12,-0.026739 -0.648289,0.64829 -0.758392,6.503959 -0.134032,7.128319 0.560723,0.5607206 1.147277,0.4703326 1.524742,-0.234963 z m 10.377021,0.112791 C 44.580778,9.0088344 44.508253,3.4638428 44.196753,2.9723119 44.04636,2.7349946 43.652564,2.5926833 43.321652,2.6560643 42.785924,2.7586754 42.709934,3.1366924 42.628158,6.105917 c -0.05051,1.8340377 -0.01904,3.5243494 0.06996,3.7562474 0.225677,0.5881046 1.352554,0.5281006 1.587645,-0.084539 z M 23.71684,52.012554 c -1.123738,-0.245836 -2.745901,-0.879376 -3.604807,-1.407868 l -1.561647,-0.96089 H 12.81805 c -4.784548,0 -5.815478,-0.08314 -6.235193,-0.502857 C 6.142873,48.700955 6.080613,47.090545 6.0849,36.260939 6.0878,29.015764 6.215673,23.684773 6.393378,23.403797 6.643594,23.008169 7.708344,22.918335 12.4508,22.892724 l 5.753845,-0.03107 2.177678,-1.139292 c 2.923996,-1.529742 4.516379,-1.908357 7.955497,-1.891548 3.070038,0.015 4.729975,0.473933 7.980705,2.206453 1.565872,0.834551 1.704342,0.850207 6.778291,0.766366 3.335885,-0.05512 5.415318,0.04048 5.841475,0.268548 C 49.590275,23.42111 49.6,23.614082 49.6,36.203796 c 0,12.305216 -0.02288,12.789725 -0.618963,13.108743 -0.35536,0.190182 -2.910615,0.332899 -6,0.335113 -5.219885,0.0037 -5.424163,0.02893 -6.821037,0.841059 -3.208762,1.865555 -8.127639,2.467943 -12.44316,1.523843 z m 6.719483,-1.728371 c 7.627568,-1.414342 13.294848,-9.258697 11.846602,-16.397446 -0.62304,-3.07111 -1.682141,-5.053298 -4.029629,-7.54176 -1.876819,-1.989527 -2.474179,-2.403635 -4.759731,-3.299598 -4.877067,-1.911865 -10.106319,-1.261647 -14.213999,1.767403 -2.167156,1.598086 -3.269798,3.098263 -4.594312,6.2507 -1.928588,4.590177 -1.10494,9.899703 2.227338,14.358209 0.997307,1.334374 4.553043,3.651788 6.626209,4.318566 2.779912,0.894083 4.343963,1.017421 6.897522,0.543926 z M 23.68951,47.626238 C 21.1855,46.776718 18.223233,44.18602 16.782926,41.585969 15.892364,39.978324 15.84,39.679435 15.84,36.203796 c 0,-3.581465 0.02926,-3.733961 1.092761,-5.695342 0.84223,-1.553294 1.238244,-1.993483 1.72732,-1.92 0.777909,0.116881 1.357855,0.971461 1.066707,1.571847 -0.118286,0.243923 -0.573203,1.078144 -1.010927,1.853826 -1.318849,2.337109 -1.01126,3.229669 1.112989,3.229669 0.609875,0 0.947054,0.193296 1.054606,0.604576 0.242632,0.927824 -0.275827,1.475424 -1.396908,1.475424 -1.465982,0 -1.779969,0.69977 -1.105925,2.464727 1.145556,2.999593 5.332319,6.521401 7.46138,6.276336 0.761601,-0.08766 0.899208,-0.270752 1.037997,-1.381063 0.123772,-0.990176 0.311252,-1.301609 0.828002,-1.375443 0.832038,-0.118877 1.323162,0.45001 1.463683,1.695443 0.156569,1.387677 1.418226,1.451837 3.489371,0.17745 1.286723,-0.791728 1.727699,-0.920355 2.231302,-0.650835 0.839885,0.449494 0.794775,1.414131 -0.09236,1.974902 -3.041627,1.922662 -7.439496,2.366358 -11.11049,1.120925 z M 36.593283,43.077444 C 36.490637,42.80995 36.711155,41.883255 37.083325,41.018123 37.455498,40.15299 37.76,39.029243 37.76,38.52091 c 0,-0.801978 -0.158742,-0.963453 -1.2,-1.220675 -0.888922,-0.219594 -1.226557,-0.483456 -1.302445,-1.017869 -0.10312,-0.726192 0.041,-0.832352 1.587149,-1.169082 0.464586,-0.10118 0.91871,-0.376825 1.009168,-0.61255 0.264362,-0.688912 -0.849037,-3.561116 -1.8344,-4.732155 -1.257894,-1.494922 -4.25145,-3.248065 -5.618225,-3.290251 -1.043099,-0.0322 -1.129658,0.04121 -1.28,1.085469 -0.143291,0.995278 -0.268151,1.119999 -1.121247,1.119999 -0.853333,0 -0.977778,-0.124444 -1.12,-1.119999 -0.209356,-1.465493 -1.075281,-1.598726 -3.272947,-0.503583 -2.017957,1.005591 -2.696919,1.034701 -2.984705,0.127965 -0.155326,-0.489388 -0.04313,-0.82886 0.378436,-1.14505 3.344438,-2.508444 8.166556,-2.907218 12.174557,-1.006797 2.610301,1.237689 4.560992,3.190586 5.894944,5.901605 1.022973,2.079008 1.089126,2.410992 1.080112,5.420256 -0.0082,2.7236 -0.122029,3.422125 -0.757283,4.645603 -1.262653,2.431818 -2.352615,3.239079 -2.799831,2.073648 z M 27.44,37.138164 c -0.802675,-0.467513 -0.834437,-5.649143 -0.03651,-5.955338 0.942311,-0.361598 1.550744,0.35815 1.655021,1.957815 0.09019,1.383597 0.191581,1.55017 1.2,1.971514 1.96663,0.821712 1.174723,2.383667 -1.197479,2.36191 C 28.477467,37.468765 27.748,37.31756 27.44,37.138164 Z m -12.231453,9.931802 c 0.113475,-0.183607 -0.177554,-0.837111 -0.64673,-1.452231 -0.469176,-0.615123 -1.300668,-2.084899 -1.847759,-3.266172 -0.869323,-1.877028 -1.01162,-2.577917 -1.128839,-5.560151 -0.173127,-4.404585 0.611211,-6.976566 3.041063,-9.972167 1.336022,-1.647093 1.09565,-1.815448 -2.592046,-1.815448 -2.737464,0 -3.360122,0.08954 -3.519999,0.506171 C 8.407406,25.788363 8.32,30.655563 8.32,36.325969 c 0,7.592086 0.101225,10.411053 0.384,10.693827 0.484771,0.484771 6.208663,0.528922 6.504547,0.05017 z m 31.935082,-0.06617 c 0.498793,-0.365449 0.538627,-1.32599 0.461161,-11.12 L 47.52,25.163797 44.348211,25.071587 c -3.549542,-0.103195 -4.189085,0.155262 -3.187049,1.287974 0.974435,1.101518 1.52758,2.124906 2.380505,4.404238 0.658592,1.760007 0.775075,2.621527 0.757155,5.6 -0.02003,3.331754 -0.08415,3.664039 -1.19872,6.213386 -0.647644,1.481363 -1.41158,2.952 -1.697632,3.268083 -0.286048,0.31608 -0.435145,0.796058 -0.331324,1.066611 0.243161,0.633667 5.230032,0.709155 6.072483,0.09192 z M 52.72,44.262542 c -0.689069,-0.07929 -0.88,-0.268896 -0.88,-0.873904 0,-1.011405 0.642768,-1.155251 4.64,-1.038394 l 3.2,0.09355 0.101254,0.88 c 0.06354,0.552199 -0.05566,0.894855 -0.32,0.919875 -1.023251,0.09686 -5.94376,0.110631 -6.741254,0.01888 z m 9.732003,-0.01984 c -0.235398,-0.14921 -0.379398,-0.615005 -0.32,-1.035101 0.07943,-0.561757 0.340787,-0.790595 0.987997,-0.865066 0.784573,-0.09027 0.88,0.0013 0.88,0.845764 0,0.568358 -0.20239,1.024681 -0.506173,1.141254 -0.612029,0.234858 -0.522505,0.24232 -1.041824,-0.08685 z m -10.24,-4.154355 c -0.235398,-0.152314 -0.379398,-0.62065 -0.32,-1.040746 0.106983,-0.75664 0.14401,-0.763805 3.947997,-0.763805 h 3.84 v 0.96 0.96 l -3.52,0.08075 c -1.936,0.04441 -3.712598,-0.04387 -3.947997,-0.196189 z m 9.99089,-0.185866 c -0.348963,-0.909382 0.02957,-1.61719 0.919843,-1.719945 0.811293,-0.09364 0.877264,-0.01542 0.877264,1.04 0,1.007779 -0.09474,1.141254 -0.810042,1.141254 -0.445526,0 -0.889702,-0.207587 -0.987065,-0.461309 z M 51.857251,35.596024 c -0.25688,-0.479988 -0.215347,-0.748423 0.176413,-1.140183 0.420598,-0.420598 1.151411,-0.49624 4.079363,-0.422224 L 59.68,34.123797 v 0.96 0.96 l -3.743382,0.09001 c -3.442128,0.08277 -3.770423,0.03949 -4.079367,-0.537779 z m 10.345642,0.146457 c -0.348963,-0.909382 0.02957,-1.61719 0.919843,-1.719945 0.811293,-0.09364 0.877264,-0.01542 0.877264,1.04 0,1.007779 -0.09474,1.141254 -0.810042,1.141254 -0.445526,0 -0.889702,-0.207587 -0.987065,-0.461309 z M 52.43753,31.965779 c -0.435661,-0.161377 -0.609552,-0.470493 -0.540045,-0.96 0.09715,-0.684231 0.278208,-0.730828 3.462515,-0.891141 1.848,-0.09304 3.612,-0.05197 3.92,0.09126 0.638291,0.296825 0.77017,1.827702 0.16,1.857307 -2.89545,0.140496 -6.495389,0.09041 -7.00247,-0.09743 z m 9.855804,-0.135316 C 61.931683,31.468813 62.05705,30.541208 62.51944,30.157458 63.219216,29.576695 64,30.083258 64,31.118033 c 0,0.756514 -0.136506,0.925763 -0.746666,0.925763 -0.410668,0 -0.842668,-0.096 -0.96,-0.213333 z M 52.023491,27.701574 c -0.382701,-0.382702 -0.422262,-0.651627 -0.16624,-1.130012 0.308944,-0.577266 0.637239,-0.620545 4.079367,-0.537777 3.672524,0.08831 3.745427,0.104469 3.851379,0.853823 0.0594,0.420096 -0.0846,0.885891 -0.32,1.0351 -0.235399,0.149209 -1.893712,0.273493 -3.685139,0.276188 -2.537424,0.0038 -3.368119,-0.106074 -3.759367,-0.497322 z m 10.428512,0.221134 c -0.235398,-0.149209 -0.379398,-0.615004 -0.32,-1.0351 0.07943,-0.561758 0.340787,-0.790597 0.987997,-0.865066 0.814429,-0.09371 0.88,-0.01622 0.88,1.039999 0,1.177903 -0.557763,1.487832 -1.547997,0.860167 z"
     id="path136"
     inkscape:connector-curvature="0" />
</svg>
