<?xml version="1.0" encoding="UTF-8" standalone="no"?>
<!-- Created with Inkscape (http://www.inkscape.org/) -->

<svg
   xmlns:dc="http://purl.org/dc/elements/1.1/"
   xmlns:cc="http://creativecommons.org/ns#"
   xmlns:rdf="http://www.w3.org/1999/02/22-rdf-syntax-ns#"
   xmlns:svg="http://www.w3.org/2000/svg"
   xmlns="http://www.w3.org/2000/svg"
   xmlns:sodipodi="http://sodipodi.sourceforge.net/DTD/sodipodi-0.dtd"
   xmlns:inkscape="http://www.inkscape.org/namespaces/inkscape"
   version="1.1"
   id="svg116"
   width="64.000023"
   height="63.845814"
   viewBox="0 0 64.000023 63.845814"
   sodipodi:docname="head-icon-2.svg"
   inkscape:version="0.92.4 (unknown)">
  <path
     style="stroke-width:0.31999999"
     d="m 44.640001,61.724557 -3.84,-2.202199 -12.962554,-0.0013 -12.962553,-0.0011 L 7.437447,52.077456 0,44.634956 V 22.317499 0 h 24.800001 24.8 V 10.24 20.48 H 48.64491 47.689815 l -0.0849,-9.2 -0.08491,-9.2 h -22.72 -22.72 L 1.997655,22.64 1.915305,43.2 h 3.202351 3.202352 v -4 -4 h 10.72 10.72 v 9.113507 9.113507 l -6.64,0.08649 -6.64,0.08649 -0.09527,2 -0.09527,2 H 27.065494 37.841518 L 36.492094,56.136048 C 34.819384,54.321373 33.735515,51.993984 33.299221,49.28 33.115314,48.136 32.963755,43.564 32.962424,39.12 l -0.0024,-8.08 h 2.38425 c 3.040192,0 5.317228,-0.487484 7.53575,-1.613306 1.650598,-0.837621 4.086541,-3.052681 5.195866,-4.724725 l 0.489648,-0.73803 0.67936,1.099226 C 51.555598,28.801956 56.147275,31.04 61.507256,31.04 h 2.492768 v 8.62425 c 0,9.243705 -0.191709,10.937286 -1.557101,13.755568 -1.345645,2.777529 -3.216617,4.396544 -8.682899,7.513593 -2.728,1.555594 -5.032,2.865475 -5.12,2.910848 -0.088,0.04537 -1.888,-0.908496 -4,-2.119702 z m 8.8,-2.837456 c 4.371418,-2.506333 5.708502,-3.605683 6.956874,-5.719917 1.411244,-2.390077 1.672691,-4.346845 1.678128,-12.559754 l 0.005,-7.552572 -2.506477,-0.193284 C 55.56968,32.552819 51.40992,30.690329 49.152131,28.195502 l -0.596413,-0.65903 -1.503766,1.351764 c -2.871751,2.581472 -6.735408,4.052065 -10.683047,4.066209 l -1.551097,0.0056 0.111097,8.417229 0.111098,8.417225 1.214614,2.456973 c 0.743492,1.503965 1.686288,2.85297 2.430647,3.477894 2.067379,1.735671 9.734397,5.993824 10.274739,5.706448 0.264,-0.140406 2.28,-1.287305 4.48,-2.548668 z m 1.301859,-4.406919 c -0.351504,-0.771465 -0.309273,-0.911779 0.438336,-1.456374 0.455024,-0.331462 1.221626,-1.273418 1.703562,-2.093235 0.808553,-1.375424 0.884905,-1.805757 0.988377,-5.570573 l 0.112138,-4.08 h 0.927862 0.927866 v 3.62192 c 0,4.486704 -0.501254,6.326813 -2.2712,8.337574 -1.837011,2.086957 -2.340646,2.307991 -2.826941,1.240688 z m -13.777849,-5.036144 -2.387114,-2.403155 0.71409,-0.714093 0.714092,-0.714092 1.674192,1.674192 1.674192,1.674192 6.800218,-6.794704 6.800221,-6.794701 0.718182,0.718185 0.718186,0.718186 -7.519571,7.519571 -7.519572,7.519571 z M 14.400001,50.56 v -5.44 h -5.51647 -5.51647 l 5.43294,5.44 c 2.988117,2.992 5.470528,5.44 5.51647,5.44 0.04594,0 0.08353,-2.448 0.08353,-5.44 z m 13.44,-6.24 v -7.2 h -8.8 -8.8 v 3.04 3.04 h 3.04 3.04 v 4.16 4.16 h 5.76 5.76 z m -9.28,4 v -0.96 h 3.52 3.52 v 0.96 0.96 h -3.52 -3.52 z m 0,-4.16 V 43.2 h 3.52 3.52 v 0.96 0.96 h -3.52 -3.52 z m -6.08,-4 v -1.12 h 6.56 6.56 v 1.12 1.12 h -6.56 -6.56 z m -6.08,-8.16 v -0.96 h 9.6 9.6 V 32 32.96 h -9.6 -9.6 z m 21.44,0 c 0,-0.853333 0.106667,-0.96 0.96,-0.96 0.853333,0 0.96,0.106667 0.96,0.96 0,0.853334 -0.106667,0.96 -0.96,0.96 -0.853333,0 -0.96,-0.106666 -0.96,-0.96 z m -21.44,-4.16 v -0.96 h 9.6 9.6 v 0.96 0.96 h -9.6 -9.6 z m 21.44,0 c 0,-0.853333 0.106667,-0.96 0.96,-0.96 0.853333,0 0.96,0.106667 0.96,0.96 0,0.853333 -0.106667,0.96 -0.96,0.96 -0.853333,0 -0.96,-0.106667 -0.96,-0.96 z m -21.44,-4.16 v -0.96 h 16.32 16.32 v 0.96 0.96 h -16.32 -16.32 z m 34.88,0 c 0,-0.853333 0.106666,-0.96 0.96,-0.96 0.853334,0 0.96,0.106667 0.96,0.96 0,0.853333 -0.106666,0.96 -0.96,0.96 -0.853334,0 -0.96,-0.106667 -0.96,-0.96 z m -34.88,-4.16 v -0.96 h 16.32 16.32 v 0.96 0.96 h -16.32 -16.32 z m 34.88,0 c 0,-0.853333 0.106666,-0.96 0.96,-0.96 0.853334,0 0.96,0.106667 0.96,0.96 0,0.853333 -0.106666,0.96 -0.96,0.96 -0.853334,0 -0.96,-0.106667 -0.96,-0.96 z m -34.88,-4.16 V 14.4 h 16.32 16.32 v 0.96 0.96 h -16.32 -16.32 z m 34.88,0 c 0,-0.853333 0.106666,-0.96 0.96,-0.96 0.853334,0 0.96,0.106667 0.96,0.96 0,0.853333 -0.106666,0.96 -0.96,0.96 -0.853334,0 -0.96,-0.106667 -0.96,-0.96 z M 6.400001,7.2 V 4.16 h 18.4 18.4 v 3.04 3.04 h -18.4 -18.4 z m 34.88,0 V 6.08 h -16.48 -16.48 V 7.2 8.32 h 16.48 16.48 z"
     id="path178"
     inkscape:connector-curvature="0" />
</svg>
