<?xml version="1.0" encoding="UTF-8" standalone="no"?>
<!-- Created with Inkscape (http://www.inkscape.org/) -->

<svg
   xmlns:dc="http://purl.org/dc/elements/1.1/"
   xmlns:cc="http://creativecommons.org/ns#"
   xmlns:rdf="http://www.w3.org/1999/02/22-rdf-syntax-ns#"
   xmlns:svg="http://www.w3.org/2000/svg"
   xmlns="http://www.w3.org/2000/svg"
   xmlns:sodipodi="http://sodipodi.sourceforge.net/DTD/sodipodi-0.dtd"
   xmlns:inkscape="http://www.inkscape.org/namespaces/inkscape"
   version="1.1"
   id="svg116"
   width="63.297726"
   height="59.200001"
   viewBox="0 0 63.297726 59.200001"
   sodipodi:docname="stage-icon-3.svg"
   inkscape:version="0.92.4 (unknown)">
  <metadata
     id="metadata122">
    <rdf:RDF>
      <cc:Work
         rdf:about="">
        <dc:format>image/svg+xml</dc:format>
        <dc:type
           rdf:resource="http://purl.org/dc/dcmitype/StillImage" />
        <dc:title></dc:title>
      </cc:Work>
    </rdf:RDF>
  </metadata>
  <defs
     id="defs120" />
  <sodipodi:namedview
     pagecolor="#ffffff"
     bordercolor="#666666"
     borderopacity="1"
     objecttolerance="10"
     gridtolerance="10"
     guidetolerance="10"
     inkscape:pageopacity="0"
     inkscape:pageshadow="2"
     inkscape:window-width="1920"
     inkscape:window-height="1007"
     id="namedview118"
     showgrid="false"
     inkscape:zoom="3.9864864"
     inkscape:cx="116.46644"
     inkscape:cy="25.837289"
     inkscape:window-x="0"
     inkscape:window-y="24"
     inkscape:window-maximized="1"
     inkscape:current-layer="svg116" />
  <path
     style="fill:#080808;stroke-width:0.31999999"
     d="m 29.76,58.240001 c 0,-0.853334 0.106667,-0.96 0.96,-0.96 0.853333,0 0.96,0.106666 0.96,0.96 0,0.853334 -0.106667,0.96 -0.96,0.96 -0.853333,0 -0.96,-0.106666 -0.96,-0.96 z m -3.760494,0.411786 c -0.60159,-0.113914 -0.686579,-0.277972 -0.514984,-0.994106 0.270062,-1.127078 0.271618,-1.128189 1.240754,-0.88495 0.674492,0.169286 0.815816,0.371926 0.734902,1.053753 -0.107685,0.907418 -0.338447,1.037802 -1.460672,0.825303 z M 33.92,57.898747 c 0,-0.881674 0.08931,-0.97098 0.88,-0.88 0.69119,0.07953 0.901725,0.290064 0.981254,0.981254 0.09098,0.790694 0.0016,0.88 -0.88,0.88 -0.881673,0 -0.981254,-0.09958 -0.981254,-0.981254 z m 4.012685,-0.202135 c -0.250381,-0.997593 0.0097,-1.376611 0.944637,-1.376611 0.477369,0 0.834675,0.236704 0.961769,0.637136 0.263351,0.829741 0.02778,1.172534 -0.931888,1.355984 -0.620211,0.11856 -0.82208,-0.0092 -0.974518,-0.616509 z M 21.84185,57.590715 c -0.635527,-0.255504 -0.675637,-0.382026 -0.348635,-1.099719 0.373172,-0.819021 1.042378,-1.019705 1.799186,-0.539545 0.307596,0.195155 0.329939,0.47854 0.08792,1.1151 -0.351124,0.923527 -0.456128,0.9593 -1.538472,0.524164 z m 20.103948,-1.181882 c -0.203369,-0.446346 -0.328368,-0.845424 -0.277779,-0.886838 0.206432,-0.169002 1.500557,-0.801994 1.639639,-0.801994 0.08235,0 0.296764,0.421766 0.476467,0.937261 0.301113,0.863782 0.256352,0.961795 -0.570919,1.250185 -0.796249,0.277575 -0.939414,0.221252 -1.267408,-0.498614 z M 18.024217,55.940247 c -0.595702,-0.288041 -0.645849,-0.446025 -0.348635,-1.098342 0.38833,-0.852291 0.836307,-0.95401 1.593876,-0.361904 0.375358,0.293373 0.437061,0.591926 0.231473,1.12 -0.30993,0.79609 -0.461682,0.831053 -1.476714,0.340246 z m 27.704442,-1.278806 c -0.318592,-0.595296 -0.266854,-0.785203 0.350016,-1.284714 0.690496,-0.559129 0.743632,-0.560118 1.152423,-0.02144 0.600345,0.791104 0.549833,1.288183 -0.170061,1.67346 -0.840887,0.450028 -0.904314,0.432544 -1.332378,-0.367303 z M 30.849633,54.433691 C 30.269749,54.080084 29.524134,53.893841 29.0507,53.984343 27.91965,54.200555 26.267367,53.258567 25.791176,52.126042 25.567594,51.594295 24.906788,50.931969 24.295331,50.62675 23.674203,50.316705 22.992193,49.627825 22.72,49.035543 22.456,48.461092 21.915575,47.905377 21.519057,47.800615 20.735617,47.593636 19.2,45.950862 19.2,45.319732 19.2,45.104593 18.682757,44.74153 18.050571,44.512929 16.556255,43.97258 15.736064,42.254887 16.280947,40.806881 16.627921,39.884817 16.561421,39.775117 14.239803,37.439802 11.941994,35.128439 11.84,34.962458 11.84,33.534493 v -1.49135 L 5.92,26.707146 C 2.664,23.772349 0,21.26496 0,21.135171 0,21.005383 0.267114,20.657458 0.593586,20.362005 1.158589,19.850684 1.359218,19.979273 4.760082,23.032409 6.725182,24.796584 8.439386,26.24 8.569423,26.24 c 0.130037,0 3.155472,-2.921647 6.723188,-6.49255 L 21.779366,13.2549 17.0498,8.556222 12.320235,3.8575438 13.026287,3.1514913 13.732339,2.445439 21.90613,10.50272 30.079921,18.56 h 2.139417 c 1.747174,0 2.273363,0.125839 2.870019,0.68637 l 0.730608,0.686369 4.730019,-4.504319 c 2.601507,-2.477375 6.816154,-6.6022406 9.365878,-9.1663686 2.549722,-2.5641281 4.795405,-4.662051 4.990404,-4.662051 0.194998,0 0.596339,0.2671821 0.891868,0.593738 0.513447,0.5673545 -0.06707,1.1823517 -13.064048,13.8399996 -7.480755,7.285444 -13.604234,13.348482 -13.60773,13.473417 -0.0035,0.124935 0.569644,0.399729 1.273644,0.610652 1.92456,0.576612 3.450506,-0.01536 5.86728,-2.276131 l 2.021325,-1.89085 0.672265,0.672267 0.672266,0.672267 -0.696566,0.576217 -0.69657,0.576216 4.492915,4.507616 4.492912,4.507612 7.397808,-7.21151 C 58.692429,26.28518 62.156301,23.04 62.321126,23.04 c 0.164826,0 0.5369,0.262125 0.826836,0.582499 0.499593,0.552044 0.125756,0.971696 -7.150404,8.026697 C 50.420387,37.056849 48.32,39.291889 48.32,39.818948 c 0,1.720403 -0.869571,2.813334 -6.774048,8.514035 -3.364989,3.248861 -6.421414,6.081914 -6.792058,6.295677 -1.001795,0.577776 -2.782892,0.488832 -3.904261,-0.194969 z m 9.075788,-7.244314 c 3.365008,-3.261847 6.208086,-6.213847 6.317952,-6.56 0.109865,-0.346157 0.1152,-0.895783 0.01187,-1.221389 -0.103341,-0.32561 -2.27032,-2.567015 -4.815507,-4.980906 l -4.62761,-4.38889 -1.046058,0.796841 c -1.561004,1.189099 -3.735961,1.648024 -5.60607,1.1829 -1.893652,-0.470978 -3.594928,-1.589888 -3.597813,-2.366242 -0.0012,-0.335549 1.680376,-2.206766 3.914057,-4.355343 3.464217,-3.332229 3.865986,-3.827592 3.480818,-4.291691 C 33.63785,20.620031 32.983494,20.48 31.50537,20.48 c -1.71503,0 -2.167064,-0.126888 -3.025605,-0.849302 l -1.009338,-0.849303 -3.255214,3.168681 C 13.534228,32.347133 13.76,32.106215 13.76,33.106749 c 0,0.75241 0.457307,1.418029 2.137545,3.111242 l 2.137544,2.154048 2.294497,-2.179546 c 1.368675,-1.300108 2.668891,-2.251116 3.222373,-2.356921 1.38273,-0.264327 2.917858,0.5136 3.524688,1.786137 0.303375,0.636183 0.943321,1.282192 1.523259,1.53769 0.554132,0.244128 1.237714,0.916454 1.532968,1.507728 0.293081,0.586918 1.013081,1.306918 1.6,1.6 0.586918,0.293082 1.283126,0.99807 1.547126,1.566643 0.312829,0.673735 0.844141,1.156666 1.525565,1.386653 C 35.953526,43.607866 36.8,44.899278 36.8,46.26321 c 0,0.638807 -0.665651,1.536957 -2.632611,3.552128 -2.105469,2.157072 -2.537978,2.756983 -2.16,2.996 1.166547,0.737681 1.879379,0.231556 7.918032,-5.621961 z m -7.884215,2.192713 c 2.799079,-2.739043 3.210404,-3.44248 2.454794,-4.198089 -0.719354,-0.719354 -1.297674,-0.384723 -4.137206,2.39391 -2.799078,2.739043 -3.210405,3.44248 -2.454794,4.19809 0.719355,0.719353 1.297674,0.384723 4.137206,-2.393911 z m -3.122987,-3.260115 c 2.989285,-3.0032 3.435896,-4.041974 1.737806,-4.041974 -0.64088,0 -1.542005,0.672009 -3.595618,2.681411 -1.507224,1.474778 -2.740407,2.849978 -2.740407,3.056 0,0.532131 0.678889,1.142589 1.270672,1.142589 0.276469,0 1.773866,-1.277111 3.327547,-2.838026 z M 25.641206,43.30209 C 27.202543,41.774241 28.48,40.279873 28.48,39.981274 c 0,-0.756864 -0.811876,-1.351414 -1.5329,-1.122569 -0.710332,0.225449 -5.8271,5.388089 -5.8271,5.879341 0,0.435996 0.907381,1.341955 1.344063,1.341955 0.186092,0 1.615806,-1.250061 3.177143,-2.777911 z m -2.851523,-3.267737 c 1.587604,-1.565104 2.825507,-3.028781 2.750897,-3.252615 -0.07461,-0.22383 -0.45785,-0.620893 -0.851644,-0.882365 -0.688141,-0.456908 -0.834818,-0.356569 -3.771249,2.579863 -2.746907,2.746909 -3.018923,3.123158 -2.695215,3.728013 0.652059,1.218384 1.570351,0.781497 4.567211,-2.172896 z M 19.608711,23.697589 26.08,17.315176 24.744444,15.966738 23.408888,14.6183 16.669421,21.14915 9.929955,27.68 l 1.355023,1.190451 c 0.745262,0.654748 1.466942,1.194748 1.603733,1.2 0.136791,0.0053 3.160791,-2.862536 6.72,-6.372862 z M 14.390241,53.807665 13.6,53.15899 14.264844,52.48354 c 0.647711,-0.658045 0.683486,-0.660355 1.388172,-0.08974 0.711504,0.576141 0.713553,0.597786 0.125397,1.324129 l -0.597931,0.738412 z m 34.738047,-1.407664 c -0.475142,-0.673421 -0.462397,-0.757261 0.197008,-1.295955 0.681686,-0.5569 0.726346,-0.554624 1.349677,0.0687 0.627216,0.627216 0.62871,0.662288 0.05525,1.295958 -0.748899,0.827523 -0.976477,0.81776 -1.601933,-0.06871 z M 11.029779,51.188708 c -0.574082,-0.634355 -0.571504,-0.669203 0.09911,-1.339818 0.664739,-0.664739 0.710476,-0.668656 1.324048,-0.113382 0.589163,0.533187 0.598974,0.630928 0.134491,1.339818 -0.610904,0.932355 -0.803781,0.946396 -1.557649,0.113382 z M 52.4,49.794545 c -0.71272,-0.541031 -0.706781,-0.922515 0.02467,-1.584471 0.547341,-0.495334 0.629379,-0.481526 1.284966,0.216314 0.678663,0.722406 0.682064,0.761933 0.110135,1.279523 -0.699165,0.632733 -0.702717,0.632957 -1.41977,0.08863 z M 8.180605,48.146538 c -0.523177,-0.79847 -0.521478,-0.861488 0.0346,-1.28295 0.764367,-0.579331 0.868492,-0.570899 1.494724,0.121082 0.495426,0.54744 0.481099,0.629779 -0.225,1.293126 l -0.754118,0.708458 z m 46.911139,-1.448985 c -0.625264,-0.506307 -0.665539,-0.668195 -0.308477,-1.239946 0.479175,-0.76728 0.832807,-0.806848 1.653811,-0.18504 0.582164,0.440919 0.581799,0.471635 -0.01456,1.22977 -0.597974,0.760205 -0.627673,0.764563 -1.330784,0.195216 z M 5.771259,44.821038 C 5.281256,43.90546 5.355641,43.661166 6.24827,43.254458 c 0.723656,-0.329721 0.846536,-0.284288 1.173813,0.43401 0.308988,0.678154 0.270576,0.874138 -0.24827,1.26673 -0.815649,0.617171 -1.010425,0.59854 -1.402554,-0.13416 z m 51.369387,-1.726372 c -0.482028,-0.352467 -0.517987,-0.544336 -0.209904,-1.12 0.43248,-0.808089 0.655188,-0.849497 1.448612,-0.269331 0.482028,0.352467 0.517987,0.544336 0.209904,1.12 -0.43248,0.80809 -0.655188,0.849498 -1.448612,0.269331 z M 3.879946,41.079882 C 3.399174,40.024701 3.397053,40.030903 4.36438,39.663127 c 0.984108,-0.374157 0.962264,-0.386192 1.229171,0.677251 0.166346,0.662775 0.05681,0.886848 -0.574043,1.174285 -0.687433,0.313213 -0.822176,0.261805 -1.139562,-0.434781 z m 54.741497,-1.675136 c -0.271638,-0.172275 -0.34392,-0.562829 -0.205926,-1.112643 0.181817,-0.724413 0.335225,-0.817837 1.058557,-0.64463 1.098665,0.263081 1.070768,0.222764 0.826809,1.194768 -0.211808,0.843916 -0.881862,1.068339 -1.67944,0.562505 z M 2.425252,36.946685 C 2.17457,35.947889 2.145581,35.990954 3.245926,35.727473 c 0.721156,-0.172685 0.876847,-0.07936 1.055574,0.632742 0.246628,0.982646 0.25655,0.96769 -0.82133,1.238218 -0.720772,0.180902 -0.868906,0.08938 -1.054918,-0.651748 z m 57.470284,-1.335724 c -0.503568,-0.09598 -0.684778,-0.297437 -0.56,-0.622596 0.101456,-0.26439 0.184464,-0.684931 0.184464,-0.934537 0,-0.504762 0.879123,-0.596576 1.563312,-0.163274 0.453203,0.287018 0.26561,1.994368 -0.209408,1.905869 -0.128646,-0.02397 -0.568912,-0.107427 -0.978368,-0.185462 z M 1.6,32.640001 c 0,-0.844709 0.110812,-0.96 0.922696,-0.96 0.727758,0 0.9547,0.167425 1.074187,0.79248 0.188011,0.983513 0.04877,1.12752 -1.090216,1.12752 -0.794074,0 -0.906667,-0.119216 -0.906667,-0.96 z M 60.053334,31.466667 C 59.936,31.349334 59.84,30.917334 59.84,30.506667 c 0,-0.616296 0.167619,-0.746666 0.96,-0.746666 0.853334,0 0.96,0.106666 0.96,0.96 0,0.79238 -0.130371,0.96 -0.746666,0.96 -0.410668,0 -0.842668,-0.096 -0.96,-0.213334 z M 1.6,28.458745 c 0,-0.881673 0.08931,-0.970979 0.88,-0.88 0.69119,0.07953 0.901725,0.290065 0.981255,0.981255 0.09098,0.790695 0.0017,0.88 -0.88,0.88 C 1.699582,29.44 1.6,29.34042 1.6,28.458745 Z M 6.56,21.149596 C 5.454959,20.676402 4.739155,19.608202 4.704352,18.380397 4.677472,17.432166 4.873466,17.0189 5.700493,16.279951 c 1.348121,-1.204546 2.610716,-1.204704 3.958459,-5.12e-4 0.803227,0.7177 1.029048,1.176063 1.029048,2.088743 0,1.991837 -2.320536,3.555396 -4.128,2.781414 z m 1.707998,-1.910685 c 0.235398,-0.149208 0.379398,-0.615003 0.32,-1.035099 -0.154537,-1.092958 -1.661459,-1.092958 -1.815995,0 C 6.679663,18.856867 7.133761,19.5102 7.68,19.5102 c 0.088,0 0.352599,-0.12208 0.587998,-0.271289 z M 43.624218,4.7402482 c -0.595703,-0.2880445 -0.64585,-0.4460276 -0.348637,-1.0983421 0.39359,-0.8638338 0.823709,-0.9508443 1.663773,-0.3365728 0.482028,0.3524675 0.517987,0.5443388 0.209904,1.12 -0.41376,0.7731145 -0.528458,0.7967993 -1.52504,0.3149149 z M 19.170743,3.7853333 c -0.308084,-0.5756612 -0.272125,-0.7675326 0.209903,-1.1200001 0.850027,-0.621555 1.270871,-0.5257493 1.685218,0.3836413 0.332509,0.7297792 0.288508,0.8394221 -0.449468,1.1200001 -1.06717,0.4057376 -1.01591,0.4193411 -1.445653,-0.3836413 z M 39.89031,3.2936984 C 39.464301,3.1838452 39.352058,2.9498848 39.485939,2.4508188 c 0.101927,-0.3799501 0.18729,-0.7988184 0.189693,-0.9308184 0.0058,-0.3204765 1.018509,-0.2973379 1.542925,0.035254 0.272067,0.1725483 0.343923,0.56282 0.205309,1.1150999 -0.211447,0.8424718 -0.394788,0.916994 -1.533556,0.6233441 z M 23.098483,2.270215 c -0.286462,-0.8217448 -0.243619,-0.9513806 0.368696,-1.1156305 1.178369,-0.3160903 1.412867,-0.2225434 1.57556,0.6285278 0.12491,0.6534284 -0.0036,0.884315 -0.623528,1.12 -1.028288,0.3909544 -0.95088,0.4280485 -1.320728,-0.6328973 z M 36.24,2.31408 C 35.679882,2.221822 35.52,1.982534 35.52,1.2364886 c 0,-0.857394 0.09323,-0.948271 0.88,-0.8577437 0.644643,0.074174 0.908643,0.3036904 0.987091,0.8581624 C 37.517814,2.1608094 37.188266,2.4702705 36.24,2.31408 Z M 27.131741,1.28 C 26.999279,0.3774751 27.054581,0.32 28.055422,0.32 29.024953,0.32 29.12,0.40571 29.12,1.28 c 0,0.8449449 -0.110702,0.96 -0.92368,0.96 -0.781668,0 -0.945343,-0.1475969 -1.064579,-0.96 z M 31.36,0.96 C 31.36,0.1066667 31.466667,0 32.32,0 c 0.853334,0 0.96,0.1066667 0.96,0.96 0,0.8533334 -0.106666,0.96 -0.96,0.96 -0.853333,0 -0.96,-0.1066666 -0.96,-0.96 z"
     id="path209"
     inkscape:connector-curvature="0" />
</svg>
