<?xml version="1.0" encoding="UTF-8" standalone="no"?>
<!-- Created with Inkscape (http://www.inkscape.org/) -->

<svg
   xmlns:dc="http://purl.org/dc/elements/1.1/"
   xmlns:cc="http://creativecommons.org/ns#"
   xmlns:rdf="http://www.w3.org/1999/02/22-rdf-syntax-ns#"
   xmlns:svg="http://www.w3.org/2000/svg"
   xmlns="http://www.w3.org/2000/svg"
   xmlns:sodipodi="http://sodipodi.sourceforge.net/DTD/sodipodi-0.dtd"
   xmlns:inkscape="http://www.inkscape.org/namespaces/inkscape"
   version="1.1"
   id="svg136"
   width="63.84"
   height="64.011444"
   viewBox="0 0 63.84 64.011444"
   sodipodi:docname="stage-icon-5.svg"
   inkscape:version="0.92.4 (unknown)">
  <metadata
     id="metadata142">
    <rdf:RDF>
      <cc:Work
         rdf:about="">
        <dc:format>image/svg+xml</dc:format>
        <dc:type
           rdf:resource="http://purl.org/dc/dcmitype/StillImage" />
        <dc:title></dc:title>
      </cc:Work>
    </rdf:RDF>
  </metadata>
  <defs
     id="defs140" />
  <sodipodi:namedview
     pagecolor="#ffffff"
     bordercolor="#666666"
     borderopacity="1"
     objecttolerance="10"
     gridtolerance="10"
     guidetolerance="10"
     inkscape:pageopacity="0"
     inkscape:pageshadow="2"
     inkscape:window-width="1920"
     inkscape:window-height="1007"
     id="namedview138"
     showgrid="false"
     inkscape:zoom="3.6875"
     inkscape:cx="118.61966"
     inkscape:cy="36.079237"
     inkscape:window-x="0"
     inkscape:window-y="24"
     inkscape:window-maximized="1"
     inkscape:current-layer="svg136" />
  <path
     style="fill:#020202;stroke-width:0.31999999"
     d="M 5.648514,63.716755 C 4.838445,63.203392 5.398363,62.306909 6.82624,61.831104 7.75101,61.522947 8.416397,61.034755 8.825043,60.364586 9.409755,59.405677 9.437662,58.51975 9.438804,40.88 l 0.0012,-18.48 h 0.96 0.96 l -0.01134,18.8 c -0.0095,15.695059 -0.08687,18.932125 -0.468662,19.6 -0.251527,0.44 -0.462424,0.908 -0.468661,1.04 -0.0062,0.132 8.057286,0.24 17.918939,0.24 14.894717,0 18.117274,-0.07813 19.03481,-0.461504 1.03888,-0.43407 1.133373,-0.42033 1.589722,0.231203 0.682198,0.973971 0.640752,1.058567 -0.801287,1.635555 -1.135513,0.454343 -3.679568,0.51417 -21.679999,0.509847 C 15.25709,63.992501 5.885835,63.867149 5.648518,63.716755 Z m 40.571844,-7.057597 -7.219638,-7.363702 -1.555398,1.579139 c -1.348932,1.369527 -1.842416,1.644423 -3.717664,2.070941 -3.300085,0.750586 -3.468938,0.576522 -2.80555,-2.892166 0.328178,-1.715962 0.568048,-2.103962 2.560001,-4.140896 C 35.093798,44.264387 35.68,43.43615 35.68,42.807094 c 0,-0.8364 -0.05402,-0.860217 -2.16,-0.952473 l -2.16,-0.09462 v -3.68 -3.68 l 4.91449,-2.505598 4.914489,-2.505598 3.172832,1.139613 3.172829,1.139612 0.708368,-0.814692 c 1.921862,-2.210337 4.322477,-2.582644 5.663126,-0.878283 1.099856,1.39824 0.883357,3.070274 -0.60688,4.686991 l -1.260742,1.367747 1.284614,4.031853 1.284612,4.031853 4.616131,4.804272 c 2.538873,2.642348 4.616131,4.927056 4.616131,5.077123 0,0.376342 -9.691389,10.022355 -10.083754,10.036537 -0.173936,0.0063 -3.565084,-3.302233 -7.535888,-7.352273 z m 12.194583,-5.756515 c -1.55633,-1.684454 -3.208835,-3.415939 -3.672237,-3.847744 l -0.842547,-0.785104 -3.830176,3.820199 -3.830176,3.820198 3.755193,3.765002 3.755194,3.765001 3.747216,-3.737456 3.747219,-3.737456 z m -6.73536,-9.503606 c -0.571562,-1.737469 -1.135136,-3.265683 -1.252387,-3.396029 -0.117248,-0.130346 -1.064989,0.623798 -2.106087,1.675875 -1.363849,1.378227 -1.896851,2.158336 -1.907008,2.791114 -0.0271,1.68727 -1.036029,1.293433 -3.844896,-1.500842 -2.559177,-2.545885 -2.655817,-2.606489 -3.718336,-2.331894 L 37.76,38.919184 l -0.09226,2.959661 -0.09226,2.959664 3.592631,3.838809 3.59263,3.83881 3.979027,-3.979027 3.979024,-3.979027 z M 34.08,50.561859 c 0,-0.391225 -0.838947,-0.976246 -1.069443,-0.74575 C 32.894752,49.931917 32.8,50.277184 32.8,50.583376 c 0,0.399162 0.181117,0.509344 0.64,0.389344 0.352,-0.09205 0.64,-0.276938 0.64,-0.410861 z m 2.614803,-1.811456 c 0.753607,-0.682006 0.739018,-1.152006 -0.05816,-1.873437 -0.624627,-0.56528 -0.666592,-0.560393 -1.441792,0.167869 l -0.798441,0.750096 0.697574,0.742535 c 0.831719,0.885324 0.85449,0.888355 1.600816,0.212937 z M 52.56943,31.84 C 52.51269,31.433921 52.1876,31.158226 51.68,31.085708 c -0.668499,-0.0955 -1.414221,0.535698 -4.536691,3.840001 L 43.406614,38.88 l 0.681956,0.730093 0.681955,0.730093 3.944166,-3.930093 C 51.508531,33.626224 52.632778,32.293341 52.56943,31.84 Z M 35.68,38.738886 c 0,-0.693612 0.128614,-1.340601 0.285808,-1.437753 0.157194,-0.09715 1.220861,-0.372643 2.363702,-0.612205 1.835888,-0.384832 2.174999,-0.376643 2.911604,0.0703 0.822934,0.499328 0.858547,0.48128 2.756297,-1.396666 1.057424,-1.04639 1.922589,-1.986691 1.922589,-2.089558 0,-0.102867 -1.036474,-0.520851 -2.303274,-0.928851 L 41.313453,31.602335 37.216726,33.631338 33.12,35.660339 V 37.83017 40 h 1.28 c 1.276806,0 1.28,-0.0032 1.28,-1.261114 z M 19.04,57.6 V 56.64 H 29.92 40.8 v 0.96 0.96 H 29.92 19.04 Z m -4.48,-7.36 v -0.96 h 7.84 7.84 v 0.96 0.96 H 22.4 14.56 Z m 0,-4.48 V 44.8 h 4.8 4.8 v 0.96 0.96 h -4.8 -4.8 z m 0,-4.16 v -0.96 h 7.36 7.36 v 0.96 0.96 h -7.36 -7.36 z m 4.48,-4.16 v -0.96 h 5.12 5.12 v 0.96 0.96 H 24.16 19.04 Z M 14.56,32.96 V 32 h 7.36 7.36 v 0.96 0.96 h -7.36 -7.36 z m 0,-4.16 V 27.84 H 26.08 37.6 v 0.96 0.96 H 26.08 14.56 Z M 49.44,15.509722 C 49.44,6.4111644 49.52478,4.2565405 49.92,3.3106422 50.184,2.6788014 50.4,2.1074265 50.4,2.0409203 50.4,1.9744143 46.368,1.92 41.44,1.92 H 32.48 V 0.96 0 l 11.28,0.00178 c 6.670787,0.00106 11.759584,0.1349893 12.453674,0.3277726 2.135443,0.5931188 4.252518,3.9614313 3.441884,5.4761142 -0.283811,0.5303056 -0.747753,0.5943286 -4.306816,0.5943286 H 51.36 v 10.0799996 10.08 H 50.4 49.44 Z m 8,-11.4539415 C 57.44,3.4613347 56.127386,2.3102657 55.36,2.2317681 53.921091,2.0845789 53.211859,2.2790501 52.465456,3.0254546 52.033456,3.4574544 51.68,3.9614544 51.68,4.1454544 51.68,4.3534006 52.769856,4.48 54.56,4.48 c 2.178358,0 2.88,-0.1033504 2.88,-0.4242195 z M 19.04,24.64 V 23.68 H 33.12 47.2 v 0.96 0.96 H 33.12 19.04 Z M 0.897844,20.347707 0,19.575413 V 10.75498 1.9345454 L 0.886978,1.0472727 1.773957,0.16 14.634885,0.069305 C 23.919502,0.00383 27.747426,0.082832 28.400651,0.3534065 30.207457,1.1018101 30.24,1.2857093 30.24,10.747566 v 8.685161 L 29.396364,20.276364 28.552727,21.12 H 15.174208 1.795689 Z m 27.349909,-6.671263 0.08775,-5.3635566 -13.207754,0.08356 -13.207753,0.08356 -0.08858,4.7249986 c -0.05461,2.912724 0.04251,4.969942 0.253195,5.363619 0.333999,0.624082 0.634687,0.636716 13.208584,0.555001 l 12.866804,-0.08362 z m 0.07225,-9.1851851 c 0,-1.5596107 -0.113215,-1.9693323 -0.618963,-2.2400001 C 27.30574,2.0397005 22.718469,1.92 15.006237,1.92 1.096438,1.92 1.760003,1.7812581 1.760003,4.6895962 v 1.7104042 h 13.28 13.28 z M 34.865014,16.55633 c -0.08819,-0.229815 -0.120893,-3.005005 -0.07268,-6.167088 L 34.880004,4.64 h 6.08 6.08 v 6.08 6.08 l -6.007325,0.08709 c -4.710313,0.06829 -6.041939,-0.0031 -6.167664,-0.330758 z M 45.280003,10.72 V 6.4000004 h -4.32 -4.32 V 10.72 15.04 h 4.32 4.32 z"
     id="path167"
     inkscape:connector-curvature="0" />
</svg>
