<?xml version="1.0" encoding="UTF-8" standalone="no"?>
<!-- Created with Inkscape (http://www.inkscape.org/) -->

<svg
   xmlns:dc="http://purl.org/dc/elements/1.1/"
   xmlns:cc="http://creativecommons.org/ns#"
   xmlns:rdf="http://www.w3.org/1999/02/22-rdf-syntax-ns#"
   xmlns:svg="http://www.w3.org/2000/svg"
   xmlns="http://www.w3.org/2000/svg"
   xmlns:sodipodi="http://sodipodi.sourceforge.net/DTD/sodipodi-0.dtd"
   xmlns:inkscape="http://www.inkscape.org/namespaces/inkscape"
   version="1.1"
   id="svg96"
   width="62.911381"
   height="62.860794"
   viewBox="0 0 62.911381 62.860794"
   sodipodi:docname="stage-icon-1.svg"
   inkscape:version="0.92.4 (unknown)">
  <metadata
     id="metadata102">
    <rdf:RDF>
      <cc:Work
         rdf:about="">
        <dc:format>image/svg+xml</dc:format>
        <dc:type
           rdf:resource="http://purl.org/dc/dcmitype/StillImage" />
        <dc:title></dc:title>
      </cc:Work>
    </rdf:RDF>
  </metadata>
  <defs
     id="defs100" />
  <sodipodi:namedview
     pagecolor="#ffffff"
     bordercolor="#666666"
     borderopacity="1"
     objecttolerance="10"
     gridtolerance="10"
     guidetolerance="10"
     inkscape:pageopacity="0"
     inkscape:pageshadow="2"
     inkscape:window-width="1920"
     inkscape:window-height="1007"
     id="namedview98"
     showgrid="false"
     inkscape:zoom="3.4303616"
     inkscape:cx="79.910115"
     inkscape:cy="-7.0983196"
     inkscape:window-x="0"
     inkscape:window-y="24"
     inkscape:window-maximized="1"
     inkscape:current-layer="svg96" />
  <path
     style="fill:#070707;stroke-width:0.31999999"
     d="m 25.310756,62.566269 c -2.303655,-0.586746 -4.258878,-1.819578 -6.877766,-4.336666 -1.770703,-1.701872 -2.238583,-2.341206 -2.153568,-2.942742 0.07322,-0.518093 0.349736,-0.802669 0.848634,-0.873376 0.560588,-0.07945 1.380089,0.509609 3.379791,2.429405 3.027551,2.906569 4.538281,3.597283 7.857191,3.592349 1.573911,-0.0022 2.540923,-0.206976 3.843658,-0.813383 l 1.740663,-0.810259 -3.132312,-3.144109 c -3.180645,-3.192627 -3.533388,-3.887328 -2.351697,-4.631494 0.472731,-0.297703 1.043802,0.133692 3.762684,2.842371 3.463744,3.450746 3.797946,3.565216 4.748918,1.626576 0.664896,-1.355447 0.09042,-2.26745 -3.921798,-6.225997 -4.122692,-4.067549 -4.7501,-4.311059 -6.698892,-2.599997 -1.315808,1.155293 -2.649671,1.473789 -4.128405,0.98576 -1.302208,-0.429766 -6.959823,-6.047741 -6.959823,-6.911059 0,-0.31401 -1.525362,-2.118851 -3.389692,-4.010762 -3.4290028,-3.479728 -3.7932628,-4.163619 -2.6134038,-4.906633 0.471132,-0.296695 1.0037078,0.0923 3.4579588,2.525702 l 2.901056,2.87641 0.782041,-0.897844 c 1.493804,-1.715008 1.176406,-2.476582 -2.65796,-6.377578 -1.892,-1.924878 -3.8507878,-3.714704 -4.3528608,-3.97739 -1.237474,-0.647448 -2.391754,-0.147563 -4.101364,1.776182 -1.965333,2.2115 -2.818907,4.261666 -2.822649,6.779625 -0.0052,3.486425 0.636036,4.77647 4.237606,8.525491 2.154129,2.242323 3.118914,3.470874 2.989839,3.807239 -0.104814,0.273139 -0.190571,0.556841 -0.190571,0.630448 0,0.0736 -0.337704,0.133827 -0.750454,0.133827 -0.531038,0 -1.686063,-0.961645 -3.950468,-3.289066 -3.365383,-3.459034 -4.24681498,-4.996746 -4.73668398,-8.26343 -0.267816,-1.785924 0.251279,-4.737913 1.16508098,-6.625575 1.022609,-2.112429 4.24995,-5.421538 5.715939,-5.860759 2.430702,-0.728256 3.3017078,-0.272621 7.6233558,3.987892 2.170724,2.140016 4.150724,4.279786 4.4,4.755046 0.546786,1.04248 0.591549,3.234922 0.08569,4.196928 -0.202148,0.384429 -0.706148,1.106013 -1.12,1.603517 -0.413854,0.497501 -0.75246,1.055098 -0.75246,1.239098 0,0.405299 5.042435,5.625123 5.861459,6.067661 0.428002,0.231257 0.797508,0.160381 1.400093,-0.26857 2.077924,-1.479162 2.579703,-1.699472 3.874339,-1.701059 0.75674,-9.6e-4 1.76474,0.202269 2.24,0.451545 0.475261,0.249277 2.615031,2.229277 4.755047,4.400001 4.259331,4.320451 4.716044,5.193001 3.988748,7.620499 -0.534316,1.783389 -4.238524,5.175363 -6.628115,6.069424 -2.323106,0.869187 -5.246552,1.085306 -7.368849,0.544752 z m 21.663451,-6.736368 c -0.219539,-0.264531 -0.305482,-0.775629 -0.191047,-1.136179 0.168704,-0.53154 0.477888,-0.655357 1.63648,-0.655357 1.54121,0 2.11378,0.59407 1.506912,1.563494 -0.43542,0.695552 -2.436092,0.850087 -2.952345,0.228042 z m 6.031565,-0.05836 c -0.574794,-0.692585 -0.02099,-1.519385 1.176483,-1.756464 1.667107,-0.330054 2.701424,0.839642 1.661779,1.879287 -0.551024,0.551024 -2.343392,0.473459 -2.838262,-0.122823 z m -41.279999,-4.48 c -0.304922,-0.367408 -0.328271,-0.653488 -0.08488,-1.04 0.477228,-0.757865 1.433938,-0.85974 1.913595,-0.203769 0.888207,1.214694 -0.863864,2.406339 -1.828711,1.243769 z m 42.490287,-0.33182 c -0.434196,-0.434192 -0.23473,-2.597428 0.278796,-3.02362 0.863277,-0.716454 1.573178,0.03133 1.573178,1.65714 0,1.266112 -0.08033,1.414489 -0.811974,1.499814 -0.446589,0.05208 -0.914589,-0.0079 -1.04,-0.133334 z m -0.01469,-6.094692 c -0.117336,-0.11733 -0.213336,-0.747698 -0.213336,-1.400815 0,-1.407798 0.729149,-2.206803 1.546822,-1.695021 0.651648,0.407866 0.878,2.220896 0.355831,2.850074 -0.39744,0.478883 -1.321731,0.613351 -1.689319,0.245763 z m 0.1252,-6.324333 c -0.586503,-0.706691 -0.300404,-2.873904 0.396838,-3.006096 0.882602,-0.167334 1.504627,0.54856 1.504627,1.731687 0,0.729936 -0.196544,1.174745 -0.618963,1.400819 -0.791648,0.423677 -0.82903,0.41999 -1.282502,-0.12641 z m -0.110507,-6.140975 c -0.125418,-0.125411 -0.228029,-0.774957 -0.228029,-1.443431 0,-1.431078 0.825606,-2.120742 1.73912,-1.452764 0.394531,0.288488 0.518659,0.754475 0.444205,1.667601 -0.08852,1.085602 -0.219706,1.280809 -0.915299,1.361929 -0.446589,0.05208 -0.914589,-0.0079 -1.04,-0.133335 z M 23.298882,26.113647 c -0.423034,-0.217405 -1.071034,-0.801583 -1.44,-1.298173 C 21.215688,23.949802 21.184214,23.492233 21.09536,13.715528 20.992143,2.3583587 21.07522,1.7890077 23.008778,0.60222728 24.045461,-0.03406888 24.458305,-0.04615178 42.382044,0.03522036 l 18.314006,0.0831439 1.045994,1.04576074 1.04599,1.0457608 0.09244,10.5596572 c 0.08044,9.189121 0.02531,10.701111 -0.424727,11.649513 -0.916169,1.930685 -1.720688,2.099928 -9.956077,2.094408 -4.021401,-0.0027 -7.504236,-0.12698 -7.739635,-0.276189 -0.235398,-0.149208 -0.379398,-0.615003 -0.32,-1.035099 l 0.107997,-0.763812 6.64,-0.08649 c 3.652,-0.04757 6.64,-0.201615 6.64,-0.342321 0,-0.340306 -9.616803,-11.571189 -9.908198,-11.571189 -0.124829,0 -1.438064,0.864 -2.918304,1.92 -1.480237,1.056 -2.822938,1.92 -2.98378,1.92 -0.160838,0 -1.481619,-0.864 -2.935065,-1.92 -1.45345,-1.056 -2.775616,-1.92 -2.938154,-1.92 -0.290361,0 -9.734585,10.96451 -9.943166,11.543771 -0.06204,0.172289 1.702923,0.296229 4.218436,0.296229 4.077841,0 4.336993,0.03747 4.533105,0.655357 0.445936,1.40502 -0.206023,1.58497 -5.724056,1.579926 -3.45873,-0.0032 -5.414492,-0.135085 -5.92997,-0.4 z m 5.841964,-9.355283 c 4.600087,-5.350795 4.914062,-5.796996 4.419534,-6.280763 -0.292791,-0.28642 -2.656346,-2.049962 -5.252346,-3.9189828 l -4.72,-3.3982199 v 9.9829827 c 0,6.225152 0.113102,9.86855 0.300466,9.678983 0.165256,-0.1672 2.528812,-2.896 5.252346,-6.064 z M 60.265887,3.5695503 c -0.236147,-0.2361472 -9.957853,6.9624327 -9.957853,7.3734377 0,0.219735 2.232,3.006174 4.96,6.192088 l 4.96,5.79257 0.08476,-9.61321 c 0.04662,-5.2872649 0.0255,-9.6724636 -0.04691,-9.7448857 z M 49.828034,7.9815439 c 3.96,-2.8551757 7.248,-5.3244176 7.306666,-5.4872041 0.06438,-0.1786483 -5.929312,-0.2959755 -15.12,-0.2959755 -8.374666,0 -15.220005,0.108 -15.211863,0.24 0.02855,0.4629605 14.870381,10.9501417 15.345197,10.8428607 0.264,-0.05965 3.72,-2.444506 7.68,-5.2996811 z M 39.280792,26.053737 c -0.666355,-0.802908 -0.270403,-1.615373 0.787242,-1.615373 0.661203,0 0.985021,0.175432 1.062042,0.575373 0.127052,0.659733 -0.469316,1.504627 -1.062042,1.504627 -0.220899,0 -0.575158,-0.209082 -0.787242,-0.464627 z M 6.9665682,20.940696 c -0.208907,-0.251717 -0.334539,-1.007717 -0.279183,-1.68 0.09242,-1.122447 0.179097,-1.222332 1.060649,-1.222332 0.881552,0 0.968224,0.09989 1.060648,1.222332 0.102646,1.246591 -0.339481,2.137668 -1.060648,2.137668 -0.2209,0 -0.572559,-0.20595 -0.781466,-0.457668 z m -0.11051,-6.140974 c -0.125413,-0.125413 -0.228024,-0.774958 -0.228024,-1.443432 0,-0.90045 0.171149,-1.307004 0.660455,-1.568873 1.022906,-0.547443 1.63193,0.153169 1.515387,1.743277 -0.08292,1.131366 -0.205316,1.320437 -0.907818,1.402361 -0.446587,0.05208 -0.914587,-0.0079 -1.04,-0.133333 z m -0.06768,-6.5202744 c -0.294402,-0.9275801 0.36427,-1.6020317 1.558839,-1.596183 1.354726,0.00663 1.8778258,0.3988614 1.7488148,1.3112886 -0.09381,0.6635088 -0.3040838,0.7764756 -1.6012158,0.8602506 -1.280913,0.082728 -1.523533,9.28e-4 -1.706438,-0.5753562 z m 6.2305438,0.147936 c -0.729382,-0.8788515 0.0054,-1.5890192 1.643989,-1.5890192 1.347916,0 1.405124,0.039085 1.405124,0.96 0,0.8944164 -0.08934,0.9665476 -1.30767,1.0558423 -0.909297,0.066645 -1.439816,-0.063384 -1.741443,-0.4268231 z"
     id="path146"
     inkscape:connector-curvature="0" />
</svg>
