<?xml version="1.0" encoding="UTF-8" standalone="no"?>
<!-- Created with Inkscape (http://www.inkscape.org/) -->

<svg
   xmlns:dc="http://purl.org/dc/elements/1.1/"
   xmlns:cc="http://creativecommons.org/ns#"
   xmlns:rdf="http://www.w3.org/1999/02/22-rdf-syntax-ns#"
   xmlns:svg="http://www.w3.org/2000/svg"
   xmlns="http://www.w3.org/2000/svg"
   xmlns:sodipodi="http://sodipodi.sourceforge.net/DTD/sodipodi-0.dtd"
   xmlns:inkscape="http://www.inkscape.org/namespaces/inkscape"
   version="1.1"
   id="svg126"
   width="64.000008"
   height="64"
   viewBox="0 0 64.000008 64"
   sodipodi:docname="stage-icon-4.svg"
   inkscape:version="0.92.4 (unknown)">
  <metadata
     id="metadata132">
    <rdf:RDF>
      <cc:Work
         rdf:about="">
        <dc:format>image/svg+xml</dc:format>
        <dc:type
           rdf:resource="http://purl.org/dc/dcmitype/StillImage" />
        <dc:title></dc:title>
      </cc:Work>
    </rdf:RDF>
  </metadata>
  <defs
     id="defs130" />
  <sodipodi:namedview
     pagecolor="#ffffff"
     bordercolor="#666666"
     borderopacity="1"
     objecttolerance="10"
     gridtolerance="10"
     guidetolerance="10"
     inkscape:pageopacity="0"
     inkscape:pageshadow="2"
     inkscape:window-width="1920"
     inkscape:window-height="1007"
     id="namedview128"
     showgrid="false"
     inkscape:zoom="3.6875"
     inkscape:cx="126.91525"
     inkscape:cy="31.186441"
     inkscape:window-x="0"
     inkscape:window-y="24"
     inkscape:window-maximized="1"
     inkscape:current-layer="svg126" />
  <path
     style="fill:#262626;stroke-width:0.31999999"
     d="m 17.92,63.715613 c 0,-0.156413 -0.54,-0.379914 -1.2,-0.496672 C 14.524371,62.830525 9.880646,60.283565 7.586121,58.209254 4.34693,55.280938 1.406502,50.545478 0.791369,47.266534 0.668941,46.613939 0.440799,46.08 0.284387,46.08 0.127974,46.08 0,43.92 0,41.28 c 0,-2.64 0.127974,-4.8 0.284387,-4.8 0.156412,0 0.385228,-0.54 0.508479,-1.2 0.12325,-0.66 0.694189,-2.208 1.268753,-3.44 C 5.661994,24.119951 12.817408,19.237917 21.44,18.618413 L 24.48,18.4 24.56491,9.2 24.64982,0 h 19.675094 19.675091 v 17.595238 17.595239 l -9.52,0.08476 -9.52,0.08476 0.06967,0.96 c 0.03832,0.528 0.166467,2.145581 0.284771,3.594624 0.621357,7.610515 -2.9972,15.269411 -9.359148,19.8092 -2.228295,1.59008 -5.478858,3.152771 -7.248756,3.484806 -0.652597,0.122432 -1.186537,0.350573 -1.186537,0.506986 0,0.156413 -2.16,0.284387 -4.8,0.284387 -2.64,0 -4.8,-0.127974 -4.8,-0.284387 z m 9.595147,-2.45416 c 3.791073,-0.893507 6.542594,-2.483399 9.588968,-5.540717 2.751773,-2.761664 4.138919,-4.945027 5.31177,-8.360736 1.021577,-2.975152 0.977949,-10.640451 -0.0665,-11.684906 C 41.961136,35.286848 40.711971,35.2 35.516029,35.2 c -3.497043,0 -6.436794,0.127075 -6.532784,0.282387 -0.09599,0.155315 0.09555,0.625731 0.42564,1.045376 3.007477,3.823386 1.54687,9.807693 -2.978587,12.203674 C 24.68836,49.653696 20.857266,49.710067 19.2,48.837824 17.637511,48.015462 16.066811,46.469792 15.259376,44.96 14.285478,43.138944 14.294038,39.410582 15.276376,37.554384 16.71681,34.832589 19.901044,32.96 23.088875,32.96 h 1.534869 l 0.08813,-5.04 0.08813,-5.04 h 0.96 0.96 l 0.16,4.96 0.16,4.96 h 0.8 0.8 L 28.723124,17.498444 28.806244,2.1968883 27.923127,2.2984441 27.040011,2.4 l -0.08524,8.773526 c -0.05075,5.224046 -0.214222,8.92894 -0.404055,9.157673 -0.202724,0.244268 -1.802991,0.444793 -4.394759,0.550695 -4.326058,0.176767 -5.472137,0.459598 -9.035946,2.229907 -3.058607,1.519352 -7.23846,5.780203 -8.74692,8.91642 -1.484095,3.085561 -2.12248,5.869216 -2.12835,9.280592 -0.0057,3.328768 0.845481,6.905568 2.301666,9.671651 1.388416,2.637354 5.838357,7.086067 8.478152,8.475811 4.10355,2.160352 9.91298,2.884067 14.490599,1.805178 z M 18.309435,59.38361 C 11.332129,57.663699 5.462561,51.389626 4.398275,44.51375 4.001472,41.950186 4.17503,41.28 5.23572,41.28 6.104786,41.28 6.4,41.801338 6.4,43.336077 c 0,1.360681 1.017119,4.28655 2.222539,6.393405 2.07603,3.628521 6.604915,6.828681 10.737461,7.587209 1.056,0.193827 2.25308,0.413888 2.660178,0.489024 0.591302,0.10913 0.720029,0.31136 0.64,1.005447 -0.08895,0.771491 -0.243595,0.87558 -1.380178,0.929004 -0.704,0.03309 -2.040755,-0.127356 -2.970565,-0.356556 z m 6.71439,-12.484048 c 4.492306,-1.877005 5.029175,-7.972279 0.948478,-10.76842 -1.613348,-1.105481 -4.891258,-1.105481 -6.504606,0 -1.751071,1.199853 -2.611482,2.696276 -2.764191,4.807463 -0.148175,2.048496 0.260963,3.13352 1.746781,4.632419 1.732925,1.748182 4.318527,2.270742 6.573538,1.328538 z m -4.448289,-2.086608 c -2.893889,-1.764506 -2.527165,-6.123559 0.615808,-7.319783 3.411244,-1.298329 6.613813,1.90424 5.315484,5.315485 -0.892312,2.344467 -3.775509,3.318758 -5.931292,2.004298 z m 3.353262,-2.111098 c 0.850133,-0.595459 0.937486,-1.921421 0.181606,-2.756659 -0.739731,-0.817392 -2.197217,-0.75209 -2.812259,0.126006 -1.399778,1.998461 0.63219,4.030429 2.630653,2.630653 z M 57.523104,17.52 C 57.578154,7.3976822 57.497144,2.2374282 57.283104,2.232381 52.742806,2.1253168 31.578252,2.265113 31.354099,2.4036473 30.997348,2.624131 30.901968,32.395302 31.256879,32.750208 c 0.119281,0.119283 6.059282,0.179283 13.199999,0.133334 l 12.983126,-0.08354 z M 33.082893,30.578692 c -0.09736,-0.253719 -0.126909,-0.721719 -0.06566,-1.04 0.10448,-0.542942 0.793123,-0.583925 11.147062,-0.663394 9.954317,-0.0764 11.073687,-0.03288 11.423306,0.444205 0.269834,0.368203 0.29072,0.709934 0.06874,1.124702 C 55.354829,31.007588 54.73697,31.04 44.298698,31.04 c -9.31826,0 -11.066375,-0.0719 -11.215805,-0.461308 z M 41.76,26.585698 c -1.953418,-0.548272 -3.441149,-1.367261 -4.866557,-2.679017 -3.566217,-3.281873 -4.770166,-7.614508 -3.30184,-11.882272 1.776112,-5.1623632 6.323245,-8.189392 11.672496,-7.7703853 2.760605,0.2162381 4.733357,1.0624336 6.79209,2.9134115 2.322121,2.0877859 3.436393,4.5112168 3.576029,7.7775028 0.211884,4.956257 -2.142503,8.844106 -6.595405,10.891128 -1.832717,0.842508 -5.573069,1.227826 -7.276813,0.749632 z M 45.700202,23.04 c 0.05511,-0.792 0.23511,-1.5768 0.4,-1.744 0.512364,-0.519547 0.332089,-1.314104 -0.468887,-2.06658 -0.952665,-0.894985 -2.004685,-0.781631 -2.811161,0.3029 -0.56616,0.76136 -0.572308,0.888301 -0.09799,2.023489 0.278333,0.666143 0.418413,1.487311 0.311293,1.824817 -0.300317,0.94622 0.116569,1.303585 1.396275,1.196919 1.141933,-0.09518 1.172698,-0.132416 1.270474,-1.537545 z m -4.854973,0.15753 C 41.16505,22.364085 40.090918,21.12 39.051507,21.12 c -1.42216,0 -1.543552,0.633304 -0.317581,1.656792 1.211101,1.011071 1.836912,1.135782 2.111303,0.420738 z m 8.964566,-0.333815 c 1.396375,-1.065067 1.42408,-1.819455 0.06184,-1.68399 -1.08448,0.107845 -2.43704,1.524323 -2.051382,2.148329 0.333946,0.540334 0.821546,0.426533 1.989539,-0.464339 z M 39.028493,18.923388 c 1.467491,-0.170701 1.827485,-0.34437 2.24,-1.080627 0.573984,-1.024441 0.278985,-1.724111 -1.043587,-2.475151 -0.767498,-0.435834 -0.910407,-0.414326 -1.846733,0.27793 -0.558176,0.412676 -1.393607,0.850945 -1.856519,0.973932 -0.955718,0.253916 -1.242089,1.213346 -0.677206,2.26884 0.248746,0.464786 0.534816,0.61095 0.900093,0.459895 0.294502,-0.121787 1.322281,-0.312955 2.283952,-0.424819 z m 14.056371,-0.400146 c 0.430339,-1.234477 0.335514,-1.389399 -1.338118,-2.186162 -0.740711,-0.352628 -1.599988,-0.824728 -1.909508,-1.049111 -0.873564,-0.633284 -2.288755,0.282157 -2.414518,1.561875 -0.127104,1.293327 0.627731,2.024132 2.120138,2.052647 C 50.190285,18.914861 51.008,19.04874 51.36,19.2 c 1.084506,0.466028 1.364829,0.356043 1.724864,-0.676758 z M 45.206195,15.92 c 0.22697,-0.650677 -0.112486,-1.2 -0.741545,-1.2 -0.705495,0 -1.067232,0.498989 -0.82305,1.135324 0.218272,0.568804 1.372109,0.6165 1.564595,0.06468 z M 37.12847,13.744175 C 37.664851,12.741938 37.400384,11.36 36.672202,11.36 c -0.418381,0 -0.741258,0.38549 -1.036045,1.236958 -0.235533,0.680327 -0.349527,1.364327 -0.253315,1.52 0.321088,0.51953 1.390272,0.291203 1.745628,-0.372783 z M 53.438214,14 c -9.6e-4,-0.22 -0.15175,-0.94 -0.33504,-1.6 -0.231321,-0.832947 -0.513945,-1.2 -0.92398,-1.2 -1.037127,0 -1.321136,1.651764 -0.449597,2.614803 0.60279,0.666077 1.711299,0.786228 1.708617,0.185197 z M 42.488797,12.941855 C 43.74255,12.063692 43.436256,10.770961 41.547619,8.9695846 39.831805,7.3330432 39.407216,7.2663786 38.403395,8.4759091 38.045062,8.9076739 38.084099,9.1283379 38.655558,9.9012784 39.027434,10.404264 39.426515,11.193602 39.54241,11.655364 39.748915,12.478146 40.771648,13.44 41.44,13.44 c 0.185677,0 0.657638,-0.224165 1.048797,-0.498145 z m 5.657853,0.126003 c 0.537548,-0.244923 0.926358,-0.77915 1.137353,-1.562724 0.176323,-0.65482 0.535555,-1.368988 0.798295,-1.5870399 C 50.809648,9.3144448 50.655222,8.5260134 49.69559,7.943743 48.83521,7.4216931 48.82329,7.4271459 47.13559,9.1148429 45.301251,10.949184 45.062541,11.782541 46.08,12.8 c 0.742976,0.742977 0.961667,0.771322 2.06665,0.267858 z M 45.368797,7.8218547 C 46.608243,6.9537142 46.269472,6.4 44.498886,6.4 c -1.844716,0 -2.217814,0.3610736 -1.310556,1.268328 0.781884,0.7818854 1.237555,0.8139693 2.180467,0.1535267 z M 61.768394,32.56 c 0.0046,-0.22 0.01174,-7.083091 0.01587,-15.251313 C 61.792064,1.7304564 61.775364,1.5467336 60.417242,2.2735869 59.873542,2.5645658 59.84,3.4527322 59.84,17.557925 c 0,8.236475 0.096,15.071409 0.213334,15.188741 0.373946,0.373948 1.70634,0.228931 1.71506,-0.186666 z"
     id="path188"
     inkscape:connector-curvature="0" />
</svg>
