<?xml version="1.0" encoding="UTF-8" standalone="no"?>
<!-- Created with Inkscape (http://www.inkscape.org/) -->

<svg
   xmlns:dc="http://purl.org/dc/elements/1.1/"
   xmlns:cc="http://creativecommons.org/ns#"
   xmlns:rdf="http://www.w3.org/1999/02/22-rdf-syntax-ns#"
   xmlns:svg="http://www.w3.org/2000/svg"
   xmlns="http://www.w3.org/2000/svg"
   xmlns:sodipodi="http://sodipodi.sourceforge.net/DTD/sodipodi-0.dtd"
   xmlns:inkscape="http://www.inkscape.org/namespaces/inkscape"
   version="1.1"
   id="svg106"
   width="63.993595"
   height="56.192272"
   viewBox="0 0 63.993595 56.192272"
   sodipodi:docname="stage-icon-2.svg"
   inkscape:version="0.92.4 (unknown)">
  <metadata
     id="metadata112">
    <rdf:RDF>
      <cc:Work
         rdf:about="">
        <dc:format>image/svg+xml</dc:format>
        <dc:type
           rdf:resource="http://purl.org/dc/dcmitype/StillImage" />
        <dc:title></dc:title>
      </cc:Work>
    </rdf:RDF>
  </metadata>
  <defs
     id="defs110" />
  <sodipodi:namedview
     pagecolor="#ffffff"
     bordercolor="#666666"
     borderopacity="1"
     objecttolerance="10"
     gridtolerance="10"
     guidetolerance="10"
     inkscape:pageopacity="0"
     inkscape:pageshadow="2"
     inkscape:window-width="1920"
     inkscape:window-height="1007"
     id="namedview108"
     showgrid="false"
     inkscape:zoom="4.1903409"
     inkscape:cx="124.31577"
     inkscape:cy="27.662486"
     inkscape:window-x="0"
     inkscape:window-y="24"
     inkscape:window-maximized="1"
     inkscape:current-layer="svg106" />
  <path
     style="fill:#060606;stroke-width:0.31999999"
     d="m 4.9869141,55.696558 c -2.074718,-0.637674 -3.92148,-2.567059 -4.560216,-4.764234 -0.419606,-1.443392 -0.47473,-4.738774 -0.396748,-23.718061 l 0.09056,-22.0417659 0.908041,-1.5448307 c 2.479264,-4.21791871 8.109543,-4.8808041 11.3741319,-1.3391427 l 1.331008,1.4439734 h 24.729411 c 18.807318,0 24.821366,0.091959 25.113408,0.384 0.556112,0.5561107 0.556112,51.1558879 0,51.7119999 -0.293226,0.293226 -7.082474,0.37873 -28.72,0.361712 C 10.852551,56.171329 6.2860511,56.095859 4.9869091,55.696558 Z M 19.480515,53.503847 c 0,-0.08176 -0.648,-1.215993 -1.44,-2.520524 l -1.44,-2.371876 V 36.750859 c 0,-7.67328 -0.114588,-11.931411 -0.324573,-12.061188 -0.178515,-0.110329 -0.646515,-0.802827 -1.04,-1.538886 l -0.715427,-1.338288 -0.16,13.92 -0.16,13.92 -0.868839,0.100179 c -0.726636,0.08378 -0.901557,-0.04716 -1.06874,-0.8 -0.699414,-3.149549 -1.990906,-4.669651 -4.2986289,-5.059539 -1.062266,-0.179469 -1.620121,-0.07392 -2.788125,0.527501 -3.419112,1.76056 -3.609755,6.599136 -0.338592,8.593587 0.954102,0.581725 1.622065,0.635981 7.8429249,0.637075 3.74,6.4e-4 6.8,-0.0657 6.8,-0.147453 z m 41.92,-23.53135 V 6.2924971 h -23.52 -23.52 v 6.2399999 c 0,3.432 0.06907,6.24 0.153496,6.24 0.08442,0 0.433899,-0.549633 0.776612,-1.221407 0.342714,-0.671774 0.84964,-1.409406 1.126504,-1.639182 0.365885,-0.303658 0.503388,-1.00146 0.503388,-2.554593 0,-1.235303 0.162008,-2.298826 0.384,-2.520818 0.520948,-0.520948 6.071052,-0.520948 6.592,0 0.217397,0.217397 0.384,1.258667 0.384,2.4 v 2.016 h 14.221114 c 8.893916,0 14.29336,0.116892 14.413971,0.312046 0.528531,0.85518 4.23896,3.346772 5.222272,3.50681 2.192569,0.356849 2.192569,2.245439 0,2.602288 -0.983312,0.160038 -4.693741,2.65163 -5.222272,3.50681 -0.120506,0.19498 -5.407949,0.312046 -14.093971,0.312046 H 24.920515 v 11.398141 11.398141 l -1.178692,1.961859 c -0.64828,1.079024 -1.384842,2.285859 -1.636803,2.681859 l -0.458111,0.72 H 41.523712 61.400515 Z M 31.758454,50.949313 c -3.464317,-0.778906 -4.926391,-1.905507 -3.858627,-2.97327 0.462437,-0.462439 0.723276,-0.442573 2.978108,0.226812 7.09761,2.107047 14.221633,-1.624854 16.328327,-8.553552 0.710445,-2.336576 0.600077,-5.88608 -0.258659,-8.318546 -0.714227,-2.023137 -0.716506,-2.072214 -0.116614,-2.510864 0.336518,-0.246068 0.718041,-0.447396 0.84783,-0.447396 1.010509,0 2.138035,3.055961 2.420374,6.56 0.306416,3.802816 -1.176662,8.21345 -3.741574,11.127341 -3.534938,4.015901 -9.539773,6.027008 -14.599165,4.889475 z M 21.640515,49.186635 c 0.707306,-1.238701 0.72,-1.450224 0.72,-11.997536 V 26.452497 h -1.76 -1.76 v 10.583018 10.583017 l 0.830407,1.416983 c 0.456724,0.77934 0.924724,1.415872 1.04,1.414518 0.115276,-0.0013 0.533593,-0.569885 0.929593,-1.263398 z M 7.1347481,41.495623 c 1.047223,0.0019 2.223611,0.281463 3.3057669,0.785277 l 1.68,0.782154 V 24.592783 c 0,-17.3620782 -0.03555,-18.5371701 -0.592516,-19.5852785 C 11.202116,4.3942504 10.446116,3.5584875 9.8480001,3.1502533 L 8.7605151,2.4080095 8.5897801,17.870253 c -0.09391,8.504234 -0.201905,15.482839 -0.24,15.508007 -0.493542,0.326087 -1.194602,0.368269 -1.692446,0.101831 -0.595955,-0.318944 -0.616819,-0.850266 -0.616819,-15.708309 V 2.3935842 l -1.038912,0.6067576 c -0.571402,0.3337169 -1.363402,1.0882673 -1.76,1.676779 L 2.5205151,5.7471422 V 24.376297 43.005451 l 1.494233,-0.756477 c 0.992165,-0.502298 2.040498,-0.755427 3.12,-0.753351 z m -0.710233,-3.267126 c -0.521369,-0.52137 -0.48246,-1.071824 0.118223,-1.672509 0.674726,-0.674726 1.737777,-0.115891 1.737777,0.91353 0,1.031942 -1.123571,1.491408 -1.856,0.758979 z M 22.145384,23.776155 c 1.374426,-0.574272 2.135131,-1.79382 2.135131,-3.423001 0,-3.552201 -3.956754,-4.981373 -6.448391,-2.329147 -1.084686,1.154595 -1.06017,3.564927 0.04839,4.757704 1.34691,1.449234 2.521125,1.723027 4.26487,0.994444 z m 28.956696,-1.398391 0.101568,-0.714732 -8.546874,-0.08527 c -7.736547,-0.07718 -8.580345,-0.138358 -8.899929,-0.645265 -0.257408,-0.408289 -0.257408,-0.711711 0,-1.12 0.319584,-0.506907 1.163382,-0.568084 8.899929,-0.645267 l 8.546874,-0.08527 -0.101568,-0.714732 -0.101565,-0.714733 -12.40704,-0.08376 -12.407043,-0.08376 0.247041,0.883765 c 0.321673,1.150749 0.312862,3.251495 -0.01748,4.167543 l -0.261004,0.72377 12.422762,-0.08378 12.422764,-0.08378 z M 29.480515,21.440567 c -0.580042,-0.234052 -0.499157,-1.921547 0.103181,-2.152686 0.719884,-0.276245 1.736819,0.358815 1.736819,1.084616 0,0.499272 -0.918394,1.359895 -1.338963,1.254737 -0.05557,-0.0139 -0.281037,-0.0979 -0.501037,-0.186667 z M 54.437536,20.88922 c 0.528025,-0.400907 0.526717,-0.450349 -0.02518,-0.949823 -0.821907,-0.743805 -1.011837,-0.662509 -1.011837,0.4331 0,1.054106 0.198787,1.153158 1.037021,0.516723 z M 22.040515,13.652497 c 0,-0.545185 -0.213333,-0.64 -1.44,-0.64 -1.226667,0 -1.44,0.09482 -1.44,0.64 0,0.545185 0.213333,0.64 1.44,0.64 1.226667,0 1.44,-0.09482 1.44,-0.64 z"
     id="path230"
     inkscape:connector-curvature="0" />
</svg>
